<svg width="121" height="74" viewBox="0 0 121 74" fill="none" xmlns="http://www.w3.org/2000/svg">
<path d="M49.7474 32.4442L51.2156 27.234H49.2961L46.283 29.2277L45.2181 32.4442H49.7474Z" fill="url(#paint0_linear_348_80)"/>
<path d="M70.9132 32.4441L71.6949 29.6503L71.0013 24.3899L68.2659 26.1705L66.5063 32.4441H70.9132Z" fill="url(#paint1_linear_348_80)"/>
<path d="M84.7003 24.0448L83.3689 23.0905L82.5217 25.4443L80.3953 25.6881L78.295 14.6828L80.6079 6.74692L75.1498 1.72733H66.8646L64.2433 3.54071L64.1071 8.36002L63.058 13.6245L69.808 11.3803L60.3533 16.8005L63.3643 8.63664L62.4464 2.89373L67.1253 0L48.3045 4.83723L36.3003 20.4662L42.0058 18.1154L37.9615 32.4222H43.9898L45.276 28.5685L48.7896 26.1768H57.206L60.1627 28.9015L59.1674 32.4222H65.1982L67.1453 25.5124L72.8359 21.7888L79.1505 29.781L84.6911 27.3606L84.7003 24.0448Z" fill="url(#paint2_linear_348_80)"/>
<path d="M8.13805 58.9837V55.7284C8.78053 55.7713 9.46584 55.8141 10.1083 55.8141C13.0209 55.8141 15.8478 54.6576 15.8478 50.8884C15.8478 49.0895 14.777 46.1341 10.2796 46.1341C4.92566 46.1341 4.58301 50.503 4.41168 52.6017H0.728142C0.728142 48.19 2.52708 42.7504 10.451 42.7504C16.2761 42.7504 19.7455 46.0913 19.7455 50.6743C19.7455 54.5291 17.5182 56.3709 15.8906 56.8849V56.9706C18.8032 57.9129 20.9019 59.9688 20.9019 63.995C20.9019 68.9207 17.7324 73.675 10.0655 73.675C7.83823 73.675 5.95363 73.1182 4.49734 72.3472C1.15646 70.5911 0.256991 67.1217 0 63.6523H3.8977C4.02619 66.4792 4.7115 70.2913 10.3225 70.2913C14.1773 70.2913 16.8758 67.9355 16.8758 64.4661C16.8758 59.412 12.4212 58.9408 9.85133 58.9408C9.29451 58.9408 8.69487 58.9837 8.13805 58.9837ZM25.8276 72.8612V42.1079H38.2917C46.3012 42.1079 51.2269 48.19 51.2269 57.0562C51.2269 63.9522 48.2287 72.8612 38.1204 72.8612H25.8276ZM29.9823 45.663V69.3061H38.0347C43.4315 69.3061 46.9437 65.0658 46.9437 57.3132C46.9437 49.5607 43.3887 45.663 37.7349 45.663H29.9823ZM59.4078 57.2704H55.9384C56.1097 51.9164 59.6648 49.8176 65.1901 49.8176C66.989 49.8176 73.4995 50.3316 73.4995 56.0711V68.9635C73.4995 69.9058 73.9706 70.2913 74.7416 70.2913C75.0843 70.2913 75.5554 70.2056 75.9837 70.1199V72.8612C75.3412 73.0325 74.7844 73.2895 73.9278 73.2895C70.5869 73.2895 70.0729 71.5762 69.9444 69.863C68.4881 71.4477 66.2181 73.5037 61.8492 73.5037C57.7373 73.5037 54.8248 70.8909 54.8248 67.0361C54.8248 65.1515 55.3816 60.7826 61.635 60.0116L67.8457 59.2407C68.7451 59.155 69.8159 58.8123 69.8159 56.5851C69.8159 54.2293 68.1027 52.9444 64.5476 52.9444C60.2644 52.9444 59.6648 55.5571 59.4078 57.2704ZM69.7303 65.1086V61.4251C69.1306 61.8962 68.1883 62.2389 63.5196 62.8385C61.6779 63.0955 58.7225 63.6523 58.7225 66.4792C58.7225 68.9207 59.9646 70.3769 62.7915 70.3769C66.3037 70.3769 69.7303 68.1068 69.7303 65.1086ZM98.4704 42.1079V72.8612H94.9154V69.7773H94.8297C93.2021 72.8184 90.6322 73.5037 88.4478 73.5037C80.8237 73.5037 78.5965 66.3507 78.5965 60.9968C78.5965 54.7005 81.9802 49.8176 87.9338 49.8176C92.0028 49.8176 93.7161 52.3447 94.6156 53.6297L94.7012 53.3299V42.1079H98.4704ZM82.4942 61.5964C82.4942 66.5221 84.4216 70.2484 88.5335 70.2484C90.932 70.2484 94.6584 68.6637 94.6584 62.71C94.6584 59.0693 94.0588 53.2014 88.6191 53.2014C82.794 53.2014 82.4942 58.7267 82.4942 61.5964ZM120.615 53.544L107.251 69.7345H121V72.8612H102.24V69.9058L115.732 53.5868H103.268V50.4601H120.615V53.544Z" fill="url(#paint3_linear_348_80)"/>
<defs>
<linearGradient id="paint0_linear_348_80" x1="0" y1="73.675" x2="65.453" y2="-33.8217" gradientUnits="userSpaceOnUse">
<stop stop-color="#FFF7AE"/>
<stop offset="0.21" stop-color="#9B6326"/>
<stop offset="0.38" stop-color="#FFF7AE"/>
<stop offset="0.53" stop-color="#D3C175"/>
<stop offset="0.65" stop-color="#FCEEC4"/>
<stop offset="0.7" stop-color="#B78626"/>
<stop offset="0.82" stop-color="#FFFACF"/>
<stop offset="1" stop-color="#9B6326"/>
</linearGradient>
<linearGradient id="paint1_linear_348_80" x1="0" y1="73.675" x2="65.453" y2="-33.8217" gradientUnits="userSpaceOnUse">
<stop stop-color="#FFF7AE"/>
<stop offset="0.21" stop-color="#9B6326"/>
<stop offset="0.38" stop-color="#FFF7AE"/>
<stop offset="0.53" stop-color="#D3C175"/>
<stop offset="0.65" stop-color="#FCEEC4"/>
<stop offset="0.7" stop-color="#B78626"/>
<stop offset="0.82" stop-color="#FFFACF"/>
<stop offset="1" stop-color="#9B6326"/>
</linearGradient>
<linearGradient id="paint2_linear_348_80" x1="0" y1="73.675" x2="65.453" y2="-33.8217" gradientUnits="userSpaceOnUse">
<stop stop-color="#FFF7AE"/>
<stop offset="0.21" stop-color="#9B6326"/>
<stop offset="0.38" stop-color="#FFF7AE"/>
<stop offset="0.53" stop-color="#D3C175"/>
<stop offset="0.65" stop-color="#FCEEC4"/>
<stop offset="0.7" stop-color="#B78626"/>
<stop offset="0.82" stop-color="#FFFACF"/>
<stop offset="1" stop-color="#9B6326"/>
</linearGradient>
<linearGradient id="paint3_linear_348_80" x1="0" y1="73.675" x2="65.453" y2="-33.8217" gradientUnits="userSpaceOnUse">
<stop stop-color="#FFF7AE"/>
<stop offset="0.21" stop-color="#9B6326"/>
<stop offset="0.38" stop-color="#FFF7AE"/>
<stop offset="0.53" stop-color="#D3C175"/>
<stop offset="0.65" stop-color="#FCEEC4"/>
<stop offset="0.7" stop-color="#B78626"/>
<stop offset="0.82" stop-color="#FFFACF"/>
<stop offset="1" stop-color="#9B6326"/>
</linearGradient>
</defs>
</svg>
