<svg width="99" height="19" viewBox="0 0 99 19" fill="none" xmlns="http://www.w3.org/2000/svg">
<path d="M7.58555 18.253L8.41372 15.3217H7.33098L5.63129 16.4434L5.03053 18.253H7.58555Z" fill="url(#paint0_linear_490_40)"/>
<path d="M19.5252 18.2529L19.9662 16.6811L19.5749 13.7217L18.0318 14.7234L17.0393 18.2529H19.5252Z" fill="url(#paint1_linear_490_40)"/>
<path d="M27.3025 13.5275L26.5515 12.9906L26.0736 14.3148L24.8741 14.452L23.6893 8.26046L24.994 3.79577L21.9151 0.971756H17.2414L15.7627 1.99196L15.6859 4.70329L15.0941 7.66505L18.9017 6.40248L13.5683 9.45185L15.2669 4.85891L14.749 1.62797L17.3884 -3.2192e-05L6.77159 2.72138L0 11.5142L3.21849 10.1916L0.937112 18.2406H4.33765L5.06324 16.0725L7.04524 14.7269H11.7929L13.4608 16.2598L12.8994 18.2406H16.3014L17.3997 14.3532L20.6098 12.2583L24.1719 16.7547L27.2973 15.393L27.3025 13.5275Z" fill="url(#paint2_linear_490_40)"/>
<path d="M35.3344 10.7347V8.90333C35.6968 8.92743 36.0834 8.95152 36.4458 8.95152C38.0888 8.95152 39.6835 8.30091 39.6835 6.18036C39.6835 5.16829 39.0794 3.50559 36.5425 3.50559C33.5223 3.50559 33.329 5.96349 33.2324 7.14425H31.1545C31.1545 4.66225 32.1692 1.60192 36.6391 1.60192C39.9251 1.60192 41.8822 3.48149 41.8822 6.05988C41.8822 8.22861 40.6258 9.26479 39.7076 9.55395V9.60215C41.3506 10.1323 42.5345 11.2889 42.5345 13.5541C42.5345 16.3252 40.7466 19 36.4217 19C35.1653 19 34.1022 18.6867 33.2807 18.253C31.3961 17.265 30.8887 15.3132 30.7437 13.3613H32.9424C33.0149 14.9517 33.4015 17.0963 36.5666 17.0963C38.7412 17.0963 40.2634 15.771 40.2634 13.8191C40.2634 10.9757 37.7506 10.7106 36.3009 10.7106C35.9868 10.7106 35.6485 10.7347 35.3344 10.7347ZM45.3131 18.5422V1.24046H52.3441C56.8623 1.24046 59.6409 4.66225 59.6409 9.65034C59.6409 13.53 57.9496 18.5422 52.2475 18.5422H45.3131ZM47.6568 3.24052V16.5421H52.1992C55.2435 16.5421 57.2247 14.1565 57.2247 9.79492C57.2247 5.43335 55.2193 3.24052 52.03 3.24052H47.6568ZM64.2558 9.77082H62.2987C62.3953 6.75869 64.4007 5.57793 67.5176 5.57793C68.5323 5.57793 72.2049 5.8671 72.2049 9.0961V16.3493C72.2049 16.8795 72.4707 17.0963 72.9056 17.0963C73.0989 17.0963 73.3646 17.0481 73.6063 16.9999V18.5422C73.2438 18.6385 72.9297 18.7831 72.4465 18.7831C70.5619 18.7831 70.272 17.8192 70.1995 16.8554C69.378 17.747 68.0974 18.9036 65.633 18.9036C63.3134 18.9036 61.6705 17.4337 61.6705 15.265C61.6705 14.2047 61.9846 11.7468 65.5121 11.313L69.0156 10.8793C69.523 10.8311 70.127 10.6383 70.127 9.38527C70.127 8.05993 69.1605 7.33702 67.1551 7.33702C64.739 7.33702 64.4007 8.80694 64.2558 9.77082ZM70.0787 14.1806V12.1082C69.7404 12.3733 69.2089 12.5661 66.5753 12.9034C65.5363 13.048 63.8692 13.3613 63.8692 14.9517C63.8692 16.3252 64.5698 17.1445 66.1645 17.1445C68.1458 17.1445 70.0787 15.8674 70.0787 14.1806ZM86.291 1.24046V18.5422H84.2857V16.8072H84.2373C83.3192 18.5181 81.8695 18.9036 80.6373 18.9036C76.3365 18.9036 75.0801 14.8794 75.0801 11.8673C75.0801 8.325 76.9889 5.57793 80.3473 5.57793C82.6427 5.57793 83.6091 6.99966 84.1165 7.72257L84.1648 7.55389V1.24046H86.291ZM77.2788 12.2046C77.2788 14.9758 78.3661 17.0722 80.6856 17.0722C82.0386 17.0722 84.1407 16.1806 84.1407 12.8312C84.1407 10.7829 83.8024 7.4816 80.7339 7.4816C77.4479 7.4816 77.2788 10.5901 77.2788 12.2046ZM98.7826 7.67438L91.2442 16.7831H99V18.5422H88.4173V16.8795L96.0281 7.69848H88.9971V5.93939H98.7826V7.67438Z" fill="url(#paint3_linear_490_40)"/>
<defs>
<linearGradient id="paint0_linear_490_40" x1="0" y1="19" x2="7.03385" y2="-17.6501" gradientUnits="userSpaceOnUse">
<stop stop-color="#FFF7AE"/>
<stop offset="0.21" stop-color="#9B6326"/>
<stop offset="0.38" stop-color="#FFF7AE"/>
<stop offset="0.53" stop-color="#D3C175"/>
<stop offset="0.65" stop-color="#FCEEC4"/>
<stop offset="0.7" stop-color="#B78626"/>
<stop offset="0.82" stop-color="#FFFACF"/>
<stop offset="1" stop-color="#9B6326"/>
</linearGradient>
<linearGradient id="paint1_linear_490_40" x1="0" y1="19" x2="7.03385" y2="-17.6501" gradientUnits="userSpaceOnUse">
<stop stop-color="#FFF7AE"/>
<stop offset="0.21" stop-color="#9B6326"/>
<stop offset="0.38" stop-color="#FFF7AE"/>
<stop offset="0.53" stop-color="#D3C175"/>
<stop offset="0.65" stop-color="#FCEEC4"/>
<stop offset="0.7" stop-color="#B78626"/>
<stop offset="0.82" stop-color="#FFFACF"/>
<stop offset="1" stop-color="#9B6326"/>
</linearGradient>
<linearGradient id="paint2_linear_490_40" x1="30.7435" y1="19" x2="67.522" y2="-41.5646" gradientUnits="userSpaceOnUse">
<stop stop-color="#FFF7AE"/>
<stop offset="0.21" stop-color="#9B6326"/>
<stop offset="0.38" stop-color="#FFF7AE"/>
<stop offset="0.53" stop-color="#D3C175"/>
<stop offset="0.65" stop-color="#FCEEC4"/>
<stop offset="0.7" stop-color="#B78626"/>
<stop offset="0.82" stop-color="#FFFACF"/>
<stop offset="1" stop-color="#9B6326"/>
</linearGradient>
<linearGradient id="paint3_linear_490_40" x1="30.7435" y1="19" x2="67.522" y2="-41.5646" gradientUnits="userSpaceOnUse">
<stop stop-color="#FFF7AE"/>
<stop offset="0.21" stop-color="#9B6326"/>
<stop offset="0.38" stop-color="#FFF7AE"/>
<stop offset="0.53" stop-color="#D3C175"/>
<stop offset="0.65" stop-color="#FCEEC4"/>
<stop offset="0.7" stop-color="#B78626"/>
<stop offset="0.82" stop-color="#FFFACF"/>
<stop offset="1" stop-color="#9B6326"/>
</linearGradient>
</defs>
</svg>
