<svg width="171" height="71" viewBox="0 0 171 71" fill="none" xmlns="http://www.w3.org/2000/svg">
<g filter="url(#filter0_d_594_173)">
<rect x="17" y="17" width="137" height="37" rx="18.5" fill="url(#paint0_angular_594_173)"/>
</g>
<path d="M63.4492 39.9238C63.4492 40.2363 63.3939 40.5716 63.2832 40.9297C63.179 41.2878 63.0033 41.6198 62.7559 41.9258C62.515 42.2318 62.1992 42.4889 61.8086 42.6973C61.418 42.8991 60.9395 43 60.373 43H50.7344C50.5521 43 50.3828 42.9674 50.2266 42.9023C50.0703 42.8372 49.9336 42.7493 49.8164 42.6387C49.7057 42.5215 49.6178 42.3848 49.5527 42.2285C49.4876 42.0723 49.4551 41.903 49.4551 41.7207V30.2754C49.4551 30.0996 49.4876 29.9336 49.5527 29.7773C49.6178 29.6211 49.7057 29.4844 49.8164 29.3672C49.9336 29.25 50.0703 29.1589 50.2266 29.0938C50.3828 29.0286 50.5521 28.9961 50.7344 28.9961H59.2305C59.543 28.9961 59.8783 29.0514 60.2363 29.1621C60.5944 29.2728 60.9264 29.4518 61.2324 29.6992C61.5449 29.9401 61.8021 30.2559 62.0039 30.6465C62.2122 31.0371 62.3164 31.5156 62.3164 32.082V32.5605C62.3164 33.0098 62.2415 33.4948 62.0918 34.0156C61.9421 34.5299 61.7012 35.0182 61.3691 35.4805C61.6556 35.6562 61.9225 35.8678 62.1699 36.1152C62.4238 36.3626 62.6452 36.6491 62.834 36.9746C63.0228 37.3001 63.1725 37.668 63.2832 38.0781C63.3939 38.4883 63.4492 38.9408 63.4492 39.4355V39.9238ZM60.9102 39.4355C60.9102 39.1035 60.8581 38.8073 60.7539 38.5469C60.6497 38.2799 60.5033 38.0521 60.3145 37.8633C60.1257 37.6745 59.8978 37.5312 59.6309 37.4336C59.3639 37.3294 59.0645 37.2773 58.7324 37.2773H53.0098V34.7188H57.5898C57.9219 34.7188 58.2214 34.6699 58.4883 34.5723C58.7552 34.4681 58.9831 34.3216 59.1719 34.1328C59.3607 33.944 59.5039 33.7194 59.6016 33.459C59.7057 33.1921 59.7578 32.8926 59.7578 32.5605V32.082C59.7578 31.7174 59.582 31.5352 59.2305 31.5352H51.9941V40.4609H60.373C60.4186 40.4609 60.474 40.4577 60.5391 40.4512C60.6042 40.4447 60.6628 40.4251 60.7148 40.3926C60.7669 40.36 60.8125 40.3047 60.8516 40.2266C60.8906 40.1484 60.9102 40.041 60.9102 39.9043V39.4355ZM82.7633 37.3359C82.7633 38.1888 82.6168 38.9733 82.3238 39.6895C82.0309 40.4056 81.624 41.0241 81.1031 41.5449C80.5823 42.0658 79.9638 42.4727 79.2477 42.7656C78.538 43.0521 77.7633 43.1953 76.9234 43.1953H73.4859C72.6461 43.1953 71.8681 43.0521 71.152 42.7656C70.4358 42.4727 69.8173 42.0658 69.2965 41.5449C68.7757 41.0241 68.3655 40.4056 68.066 39.6895C67.773 38.9733 67.6266 38.1888 67.6266 37.3359V34.6602C67.6266 33.8138 67.773 33.0326 68.066 32.3164C68.3655 31.5938 68.7757 30.9753 69.2965 30.4609C69.8173 29.9401 70.4358 29.5332 71.152 29.2402C71.8681 28.9473 72.6461 28.8008 73.4859 28.8008H76.9234C77.7633 28.8008 78.538 28.9473 79.2477 29.2402C79.9638 29.5332 80.5823 29.9401 81.1031 30.4609C81.624 30.9753 82.0309 31.5938 82.3238 32.3164C82.6168 33.0326 82.7633 33.8138 82.7633 34.6602V37.3359ZM80.2242 34.6602C80.2242 34.1589 80.1428 33.7064 79.9801 33.3027C79.8238 32.8926 79.5992 32.5443 79.3062 32.2578C79.0198 31.9648 78.6715 31.7402 78.2613 31.584C77.8577 31.4212 77.4117 31.3398 76.9234 31.3398H73.4859C72.9911 31.3398 72.5387 31.4212 72.1285 31.584C71.7249 31.7402 71.3766 31.9648 71.0836 32.2578C70.7906 32.5443 70.5628 32.8926 70.4 33.3027C70.2437 33.7064 70.1656 34.1589 70.1656 34.6602V37.3359C70.1656 37.8372 70.2437 38.293 70.4 38.7031C70.5628 39.1068 70.7906 39.4551 71.0836 39.748C71.3766 40.0345 71.7249 40.2591 72.1285 40.4219C72.5387 40.5781 72.9911 40.6562 73.4859 40.6562H76.9039C77.3987 40.6562 77.8479 40.5781 78.2516 40.4219C78.6617 40.2591 79.0133 40.0345 79.3062 39.748C79.5992 39.4551 79.8238 39.1068 79.9801 38.7031C80.1428 38.293 80.2242 37.8372 80.2242 37.3359V34.6602ZM102.37 37.3359C102.37 38.1888 102.224 38.9733 101.931 39.6895C101.638 40.4056 101.231 41.0241 100.71 41.5449C100.189 42.0658 99.5708 42.4727 98.8547 42.7656C98.1451 43.0521 97.3703 43.1953 96.5305 43.1953H93.093C92.2531 43.1953 91.4751 43.0521 90.759 42.7656C90.0428 42.4727 89.4243 42.0658 88.9035 41.5449C88.3827 41.0241 87.9725 40.4056 87.673 39.6895C87.3801 38.9733 87.2336 38.1888 87.2336 37.3359V34.6602C87.2336 33.8138 87.3801 33.0326 87.673 32.3164C87.9725 31.5938 88.3827 30.9753 88.9035 30.4609C89.4243 29.9401 90.0428 29.5332 90.759 29.2402C91.4751 28.9473 92.2531 28.8008 93.093 28.8008H96.5305C97.3703 28.8008 98.1451 28.9473 98.8547 29.2402C99.5708 29.5332 100.189 29.9401 100.71 30.4609C101.231 30.9753 101.638 31.5938 101.931 32.3164C102.224 33.0326 102.37 33.8138 102.37 34.6602V37.3359ZM99.8312 34.6602C99.8312 34.1589 99.7499 33.7064 99.5871 33.3027C99.4309 32.8926 99.2062 32.5443 98.9133 32.2578C98.6268 31.9648 98.2785 31.7402 97.8684 31.584C97.4647 31.4212 97.0187 31.3398 96.5305 31.3398H93.093C92.5982 31.3398 92.1457 31.4212 91.7355 31.584C91.3319 31.7402 90.9836 31.9648 90.6906 32.2578C90.3977 32.5443 90.1698 32.8926 90.007 33.3027C89.8508 33.7064 89.7727 34.1589 89.7727 34.6602V37.3359C89.7727 37.8372 89.8508 38.293 90.007 38.7031C90.1698 39.1068 90.3977 39.4551 90.6906 39.748C90.9836 40.0345 91.3319 40.2591 91.7355 40.4219C92.1457 40.5781 92.5982 40.6562 93.093 40.6562H96.5109C97.0057 40.6562 97.4549 40.5781 97.8586 40.4219C98.2687 40.2591 98.6203 40.0345 98.9133 39.748C99.2062 39.4551 99.4309 39.1068 99.5871 38.7031C99.7499 38.293 99.8312 37.8372 99.8312 37.3359V34.6602ZM120.737 38.8789C120.737 39.3802 120.672 39.8327 120.542 40.2363C120.418 40.6335 120.252 40.985 120.044 41.291C119.835 41.597 119.591 41.8574 119.311 42.0723C119.031 42.2871 118.742 42.4629 118.442 42.5996C118.143 42.7363 117.837 42.8372 117.524 42.9023C117.218 42.9674 116.929 43 116.655 43H106.86V40.4609H116.655C117.143 40.4609 117.521 40.3177 117.788 40.0312C118.061 39.7448 118.198 39.3607 118.198 38.8789C118.198 38.6445 118.162 38.4297 118.091 38.2344C118.019 38.0391 117.915 37.8698 117.778 37.7266C117.648 37.5833 117.485 37.4727 117.29 37.3945C117.101 37.3164 116.889 37.2773 116.655 37.2773H110.815C110.405 37.2773 109.962 37.2057 109.487 37.0625C109.012 36.9128 108.569 36.6751 108.159 36.3496C107.755 36.0241 107.417 35.5977 107.143 35.0703C106.876 34.543 106.743 33.8984 106.743 33.1367C106.743 32.375 106.876 31.7337 107.143 31.2129C107.417 30.6855 107.755 30.2591 108.159 29.9336C108.569 29.6016 109.012 29.3639 109.487 29.2207C109.962 29.071 110.405 28.9961 110.815 28.9961H119.458V31.5352H110.815C110.333 31.5352 109.956 31.6816 109.682 31.9746C109.415 32.2676 109.282 32.6549 109.282 33.1367C109.282 33.625 109.415 34.0124 109.682 34.2988C109.956 34.5788 110.333 34.7188 110.815 34.7188H116.655H116.675C116.948 34.7253 117.238 34.7643 117.544 34.8359C117.85 34.901 118.152 35.0052 118.452 35.1484C118.758 35.2917 119.048 35.474 119.321 35.6953C119.595 35.9102 119.835 36.1706 120.044 36.4766C120.259 36.7826 120.428 37.1341 120.552 37.5312C120.675 37.9284 120.737 38.3776 120.737 38.8789ZM137.746 31.5352H132.151V43H129.612V31.5352H124.006V28.9961H137.746V31.5352Z" fill="black"/>
<path d="M35.2681 29.3141C35.2955 29.2234 35.3525 29.1438 35.4303 29.0871C35.5082 29.0305 35.6028 28.9999 35.7001 29H39.2999C39.3711 29.0001 39.4414 29.0166 39.5048 29.0482C39.5682 29.0798 39.623 29.1256 39.6646 29.1818C39.7063 29.238 39.7336 29.303 39.7443 29.3715C39.7551 29.44 39.749 29.51 39.7264 29.5757L38.1245 34.2497H41.5497C41.634 34.2496 41.7166 34.2726 41.7881 34.3159C41.8596 34.3593 41.9171 34.4213 41.9542 34.4948C41.9912 34.5684 42.0063 34.6506 41.9976 34.7321C41.989 34.8136 41.9569 34.8911 41.9052 34.9558L35.6056 42.8303C35.5411 42.9114 35.4493 42.9678 35.3463 42.9898C35.2433 43.0118 35.1357 42.9979 35.0422 42.9507C34.9486 42.9034 34.8751 42.8256 34.8345 42.731C34.7939 42.6364 34.7887 42.531 34.8199 42.4331L36.4407 37.312H33.4502C33.3803 37.312 33.3113 37.2962 33.2487 37.2658C33.1861 37.2354 33.1317 37.1912 33.0898 37.1368C33.0479 37.0823 33.0196 37.0191 33.0071 36.9522C32.9947 36.8852 32.9985 36.8164 33.0183 36.7512L35.2681 29.3141Z" fill="black"/>
<defs>
<filter id="filter0_d_594_173" x="0.6" y="0.6" width="169.8" height="69.8" filterUnits="userSpaceOnUse" color-interpolation-filters="sRGB">
<feFlood flood-opacity="0" result="BackgroundImageFix"/>
<feColorMatrix in="SourceAlpha" type="matrix" values="0 0 0 0 0 0 0 0 0 0 0 0 0 0 0 0 0 0 127 0" result="hardAlpha"/>
<feMorphology radius="2" operator="dilate" in="SourceAlpha" result="effect1_dropShadow_594_173"/>
<feOffset/>
<feGaussianBlur stdDeviation="7.2"/>
<feComposite in2="hardAlpha" operator="out"/>
<feColorMatrix type="matrix" values="0 0 0 0 0.607843 0 0 0 0 0.388235 0 0 0 0 0.14902 0 0 0 0.5 0"/>
<feBlend mode="normal" in2="BackgroundImageFix" result="effect1_dropShadow_594_173"/>
<feBlend mode="normal" in="SourceGraphic" in2="effect1_dropShadow_594_173" result="shape"/>
</filter>
<radialGradient id="paint0_angular_594_173" cx="0" cy="0" r="1" gradientUnits="userSpaceOnUse" gradientTransform="translate(85.5 35.5) rotate(65.3083) scale(57.7832 43.8622)">
<stop stop-color="#FFF7AE"/>
<stop offset="0.21" stop-color="#9B6326"/>
<stop offset="0.38" stop-color="#FFF7AE"/>
<stop offset="0.53" stop-color="#D3C175"/>
<stop offset="0.65" stop-color="#FCEEC4"/>
<stop offset="0.7" stop-color="#B78626"/>
<stop offset="0.82" stop-color="#FFFACF"/>
<stop offset="1" stop-color="#9B6326"/>
</radialGradient>
</defs>
</svg>
