<svg width="500" height="82" viewBox="0 0 500 82" fill="none" xmlns="http://www.w3.org/2000/svg">
<g filter="url(#filter0_d_343_14)">
<path d="M58.4261 33.75H48.4716C48.2898 32.4621 47.9186 31.3182 47.358 30.3182C46.7974 29.303 46.0777 28.4394 45.1989 27.7273C44.3201 27.0151 43.3049 26.4697 42.1534 26.0909C41.017 25.7121 39.7822 25.5227 38.4489 25.5227C36.0398 25.5227 33.9413 26.1212 32.1534 27.3182C30.3655 28.5 28.9792 30.2273 27.9943 32.5C27.0095 34.7576 26.517 37.5 26.517 40.7273C26.517 44.0455 27.0095 46.8333 27.9943 49.0909C28.9943 51.3485 30.3883 53.053 32.1761 54.2045C33.964 55.3561 36.0322 55.9318 38.3807 55.9318C39.6989 55.9318 40.9186 55.7576 42.0398 55.4091C43.1761 55.0606 44.1837 54.553 45.0625 53.8864C45.9413 53.2045 46.6686 52.3788 47.2443 51.4091C47.8352 50.4394 48.2443 49.3333 48.4716 48.0909L58.4261 48.1364C58.1686 50.2727 57.5246 52.3333 56.4943 54.3182C55.4792 56.2879 54.108 58.053 52.3807 59.6136C50.6686 61.1591 48.6231 62.3864 46.2443 63.2955C43.8807 64.1894 41.2064 64.6364 38.2216 64.6364C34.0701 64.6364 30.358 63.697 27.0852 61.8182C23.8277 59.9394 21.2519 57.2197 19.358 53.6591C17.4792 50.0985 16.5398 45.7879 16.5398 40.7273C16.5398 35.6515 17.4943 31.3333 19.4034 27.7727C21.3125 24.2121 23.9034 21.5 27.1761 19.6364C30.4489 17.7576 34.1307 16.8182 38.2216 16.8182C40.9186 16.8182 43.4186 17.197 45.7216 17.9545C48.0398 18.7121 50.0928 19.8182 51.8807 21.2727C53.6686 22.7121 55.1231 24.4773 56.2443 26.5682C57.3807 28.6591 58.108 31.053 58.4261 33.75ZM108.256 40.7273C108.256 45.803 107.294 50.1212 105.369 53.6818C103.46 57.2424 100.854 59.9621 97.5511 61.8409C94.2633 63.7045 90.5663 64.6364 86.4602 64.6364C82.3239 64.6364 78.6117 63.697 75.3239 61.8182C72.036 59.9394 69.4375 57.2197 67.5284 53.6591C65.6193 50.0985 64.6648 45.7879 64.6648 40.7273C64.6648 35.6515 65.6193 31.3333 67.5284 27.7727C69.4375 24.2121 72.036 21.5 75.3239 19.6364C78.6117 17.7576 82.3239 16.8182 86.4602 16.8182C90.5663 16.8182 94.2633 17.7576 97.5511 19.6364C100.854 21.5 103.46 24.2121 105.369 27.7727C107.294 31.3333 108.256 35.6515 108.256 40.7273ZM98.2784 40.7273C98.2784 37.4394 97.786 34.6667 96.8011 32.4091C95.8314 30.1515 94.4602 28.4394 92.6875 27.2727C90.9148 26.1061 88.839 25.5227 86.4602 25.5227C84.0814 25.5227 82.0057 26.1061 80.233 27.2727C78.4602 28.4394 77.0814 30.1515 76.0966 32.4091C75.1269 34.6667 74.642 37.4394 74.642 40.7273C74.642 44.0152 75.1269 46.7879 76.0966 49.0455C77.0814 51.303 78.4602 53.0152 80.233 54.1818C82.0057 55.3485 84.0814 55.9318 86.4602 55.9318C88.839 55.9318 90.9148 55.3485 92.6875 54.1818C94.4602 53.0152 95.8314 51.303 96.8011 49.0455C97.786 46.7879 98.2784 44.0152 98.2784 40.7273ZM115.545 17.4545H127.682L140.5 48.7273H141.045L153.864 17.4545H166V64H156.455V33.7045H156.068L144.023 63.7727H137.523L125.477 33.5909H125.091V64H115.545V17.4545ZM183.949 17.4545V64H174.108V17.4545H183.949ZM230.977 17.4545V64H222.477L202.227 34.7045H201.886V64H192.045V17.4545H200.682L220.773 46.7273H221.182V17.4545H230.977ZM269.972 32.5C269.653 31.3939 269.206 30.4167 268.631 29.5682C268.055 28.7045 267.35 27.9773 266.517 27.3864C265.699 26.7803 264.759 26.3182 263.699 26C262.653 25.6818 261.494 25.5227 260.222 25.5227C257.843 25.5227 255.752 26.1136 253.949 27.2955C252.161 28.4773 250.767 30.197 249.767 32.4545C248.767 34.697 248.267 37.4394 248.267 40.6818C248.267 43.9242 248.759 46.6818 249.744 48.9545C250.729 51.2273 252.123 52.9621 253.926 54.1591C255.729 55.3409 257.858 55.9318 260.312 55.9318C262.54 55.9318 264.441 55.5379 266.017 54.75C267.608 53.947 268.82 52.8182 269.653 51.3636C270.502 49.9091 270.926 48.1894 270.926 46.2045L272.926 46.5H260.926V39.0909H280.403V44.9545C280.403 49.0455 279.54 52.5606 277.812 55.5C276.085 58.4242 273.706 60.6818 270.676 62.2727C267.646 63.8485 264.176 64.6364 260.267 64.6364C255.903 64.6364 252.07 63.6742 248.767 61.75C245.464 59.8106 242.888 57.0606 241.04 53.5C239.206 49.9242 238.29 45.6818 238.29 40.7727C238.29 37 238.835 33.6364 239.926 30.6818C241.032 27.7121 242.578 25.197 244.562 23.1364C246.547 21.0758 248.858 19.5076 251.494 18.4318C254.131 17.3561 256.987 16.8182 260.062 16.8182C262.699 16.8182 265.153 17.2045 267.426 17.9773C269.699 18.7348 271.714 19.8106 273.472 21.2045C275.244 22.5985 276.691 24.2576 277.812 26.1818C278.934 28.0909 279.653 30.197 279.972 32.5H269.972ZM327.858 30.8409C327.676 29.0076 326.896 27.5833 325.517 26.5682C324.138 25.553 322.267 25.0455 319.903 25.0455C318.297 25.0455 316.941 25.2727 315.835 25.7273C314.729 26.1667 313.881 26.7803 313.29 27.5682C312.714 28.3561 312.426 29.25 312.426 30.25C312.396 31.0833 312.57 31.8106 312.949 32.4318C313.343 33.053 313.881 33.5909 314.562 34.0455C315.244 34.4848 316.032 34.8712 316.926 35.2045C317.82 35.5227 318.775 35.7955 319.79 36.0227L323.972 37.0227C326.002 37.4773 327.866 38.0833 329.562 38.8409C331.259 39.5985 332.729 40.5303 333.972 41.6364C335.214 42.7424 336.176 44.0455 336.858 45.5455C337.555 47.0455 337.911 48.7652 337.926 50.7045C337.911 53.553 337.184 56.0227 335.744 58.1136C334.32 60.1894 332.259 61.803 329.562 62.9545C326.881 64.0909 323.646 64.6591 319.858 64.6591C316.1 64.6591 312.828 64.0833 310.04 62.9318C307.267 61.7803 305.1 60.0758 303.54 57.8182C301.994 55.5455 301.184 52.7348 301.108 49.3864H310.631C310.737 50.947 311.184 52.25 311.972 53.2955C312.775 54.3258 313.843 55.1061 315.176 55.6364C316.525 56.1515 318.047 56.4091 319.744 56.4091C321.411 56.4091 322.858 56.1667 324.085 55.6818C325.328 55.197 326.29 54.5227 326.972 53.6591C327.653 52.7955 327.994 51.803 327.994 50.6818C327.994 49.6364 327.684 48.7576 327.062 48.0455C326.456 47.3333 325.563 46.7273 324.381 46.2273C323.214 45.7273 321.782 45.2727 320.085 44.8636L315.017 43.5909C311.093 42.6364 307.994 41.1439 305.722 39.1136C303.449 37.0833 302.32 34.3485 302.335 30.9091C302.32 28.0909 303.07 25.6288 304.585 23.5227C306.116 21.4167 308.214 19.7727 310.881 18.5909C313.547 17.4091 316.578 16.8182 319.972 16.8182C323.426 16.8182 326.441 17.4091 329.017 18.5909C331.608 19.7727 333.623 21.4167 335.062 23.5227C336.502 25.6288 337.244 28.0682 337.29 30.8409H327.858ZM387.318 40.7273C387.318 45.803 386.356 50.1212 384.432 53.6818C382.523 57.2424 379.917 59.9621 376.614 61.8409C373.326 63.7045 369.629 64.6364 365.523 64.6364C361.386 64.6364 357.674 63.697 354.386 61.8182C351.098 59.9394 348.5 57.2197 346.591 53.6591C344.682 50.0985 343.727 45.7879 343.727 40.7273C343.727 35.6515 344.682 31.3333 346.591 27.7727C348.5 24.2121 351.098 21.5 354.386 19.6364C357.674 17.7576 361.386 16.8182 365.523 16.8182C369.629 16.8182 373.326 17.7576 376.614 19.6364C379.917 21.5 382.523 24.2121 384.432 27.7727C386.356 31.3333 387.318 35.6515 387.318 40.7273ZM377.341 40.7273C377.341 37.4394 376.848 34.6667 375.864 32.4091C374.894 30.1515 373.523 28.4394 371.75 27.2727C369.977 26.1061 367.902 25.5227 365.523 25.5227C363.144 25.5227 361.068 26.1061 359.295 27.2727C357.523 28.4394 356.144 30.1515 355.159 32.4091C354.189 34.6667 353.705 37.4394 353.705 40.7273C353.705 44.0152 354.189 46.7879 355.159 49.0455C356.144 51.303 357.523 53.0152 359.295 54.1818C361.068 55.3485 363.144 55.9318 365.523 55.9318C367.902 55.9318 369.977 55.3485 371.75 54.1818C373.523 53.0152 374.894 51.303 375.864 49.0455C376.848 46.7879 377.341 44.0152 377.341 40.7273ZM437.381 40.7273C437.381 45.803 436.419 50.1212 434.494 53.6818C432.585 57.2424 429.979 59.9621 426.676 61.8409C423.388 63.7045 419.691 64.6364 415.585 64.6364C411.449 64.6364 407.737 63.697 404.449 61.8182C401.161 59.9394 398.563 57.2197 396.653 53.6591C394.744 50.0985 393.79 45.7879 393.79 40.7273C393.79 35.6515 394.744 31.3333 396.653 27.7727C398.563 24.2121 401.161 21.5 404.449 19.6364C407.737 17.7576 411.449 16.8182 415.585 16.8182C419.691 16.8182 423.388 17.7576 426.676 19.6364C429.979 21.5 432.585 24.2121 434.494 27.7727C436.419 31.3333 437.381 35.6515 437.381 40.7273ZM427.403 40.7273C427.403 37.4394 426.911 34.6667 425.926 32.4091C424.956 30.1515 423.585 28.4394 421.812 27.2727C420.04 26.1061 417.964 25.5227 415.585 25.5227C413.206 25.5227 411.131 26.1061 409.358 27.2727C407.585 28.4394 406.206 30.1515 405.222 32.4091C404.252 34.6667 403.767 37.4394 403.767 40.7273C403.767 44.0152 404.252 46.7879 405.222 49.0455C406.206 51.303 407.585 53.0152 409.358 54.1818C411.131 55.3485 413.206 55.9318 415.585 55.9318C417.964 55.9318 420.04 55.3485 421.812 54.1818C423.585 53.0152 424.956 51.303 425.926 49.0455C426.911 46.7879 427.403 44.0152 427.403 40.7273ZM483.602 17.4545V64H475.102L454.852 34.7045H454.511V64H444.67V17.4545H453.307L473.398 46.7273H473.807V17.4545H483.602Z" fill="url(#paint0_linear_343_14)"/>
</g>
<defs>
<filter id="filter0_d_343_14" x="0.139795" y="0.418116" width="499.862" height="80.6411" filterUnits="userSpaceOnUse" color-interpolation-filters="sRGB">
<feFlood flood-opacity="0" result="BackgroundImageFix"/>
<feColorMatrix in="SourceAlpha" type="matrix" values="0 0 0 0 0 0 0 0 0 0 0 0 0 0 0 0 0 0 127 0" result="hardAlpha"/>
<feMorphology radius="2" operator="dilate" in="SourceAlpha" result="effect1_dropShadow_343_14"/>
<feOffset/>
<feGaussianBlur stdDeviation="7.2"/>
<feComposite in2="hardAlpha" operator="out"/>
<feColorMatrix type="matrix" values="0 0 0 0 0.607843 0 0 0 0 0.388235 0 0 0 0 0.14902 0 0 0 0.5 0"/>
<feBlend mode="normal" in2="BackgroundImageFix" result="effect1_dropShadow_343_14"/>
<feBlend mode="normal" in="SourceGraphic" in2="effect1_dropShadow_343_14" result="shape"/>
</filter>
<linearGradient id="paint0_linear_343_14" x1="-59" y1="79" x2="-40.1352" y2="-72.6533" gradientUnits="userSpaceOnUse">
<stop stop-color="#FFF7AE"/>
<stop offset="0.21" stop-color="#9B6326"/>
<stop offset="0.38" stop-color="#FFF7AE"/>
<stop offset="0.53" stop-color="#D3C175"/>
<stop offset="0.65" stop-color="#FCEEC4"/>
<stop offset="0.7" stop-color="#B78626"/>
<stop offset="0.82" stop-color="#FFFACF"/>
<stop offset="1" stop-color="#9B6326"/>
</linearGradient>
</defs>
</svg>
