<svg width="55" height="43" viewBox="0 0 55 43" fill="none" xmlns="http://www.w3.org/2000/svg">
<path d="M14.3025 23.8507C14.2097 25.579 14.803 27.2741 15.9534 28.5673C17.1038 29.8605 18.7182 30.6472 20.4456 30.7564C22.1692 30.6419 23.7782 29.8529 24.9241 28.5603C26.07 27.2677 26.6604 25.5756 26.5675 23.8507C26.6606 22.1236 26.0708 20.4292 24.9255 19.1332C23.7801 17.8372 22.171 17.0437 20.4456 16.9238C18.7164 17.0384 17.1019 17.8296 15.952 19.1262C14.8022 20.4228 14.2095 22.1202 14.3025 23.8507ZM22.3309 23.8507C22.3309 25.2912 21.4624 26.5198 20.4456 26.5198C19.4288 26.5198 18.5391 25.2912 18.5391 23.8507C18.5391 22.4103 19.4076 21.1604 20.4456 21.1604C21.4835 21.1604 22.3309 22.3891 22.3309 23.8507Z" fill="url(#paint0_linear_490_19)"/>
<path d="M34.3424 16.9238C32.617 17.0437 31.0079 17.8372 29.8625 19.1332C28.7171 20.4292 28.1274 22.1236 28.2205 23.8507C28.1275 25.5756 28.718 27.2677 29.8639 28.5603C31.0098 29.8529 32.6188 30.6419 34.3424 30.7564C36.0698 30.6472 37.6842 29.8605 38.8346 28.5673C39.985 27.2741 40.5783 25.579 40.4855 23.8507C40.5785 22.1202 39.9858 20.4228 38.8359 19.1262C37.6861 17.8296 36.0716 17.0384 34.3424 16.9238ZM34.3424 26.5198C33.3256 26.5198 32.4571 25.2912 32.4571 23.8507C32.4571 22.4103 33.3256 21.1604 34.3424 21.1604C35.3592 21.1604 36.2489 22.3891 36.2489 23.8507C36.2489 25.3123 35.3804 26.5198 34.3424 26.5198Z" fill="url(#paint1_linear_490_19)"/>
<path d="M49.9117 9.27673L49.7635 9.08608C49.7635 9.08608 49.7635 8.9378 49.7635 8.87425C46.0864 4.40837 41.012 1.31149 35.3589 0.0832547C35.0851 0.00411556 34.798 -0.0189258 34.515 0.015512C34.232 0.0499497 33.9589 0.141158 33.712 0.283672C33.4651 0.426185 33.2495 0.617072 33.0781 0.844896C32.9067 1.07272 32.7831 1.33279 32.7146 1.60954C32.6461 1.88628 32.6342 2.17399 32.6796 2.45545C32.725 2.7369 32.8267 3.0063 32.9786 3.24751C33.1306 3.48871 33.3297 3.69676 33.564 3.85919C33.7983 4.02161 34.063 4.13508 34.3421 4.19278C39.0168 5.19501 43.2265 7.7208 46.3106 11.3739C49.1678 17.9312 50.6598 25.0018 50.6955 32.1545C47.7453 34.9061 44.0708 36.7581 40.104 37.4926V36.5818C40.104 36.5818 40.104 36.4759 40.104 36.4123C42.7154 35.3992 45.1635 34.0074 47.3698 32.2816C47.8108 31.9305 48.0943 31.4185 48.1578 30.8584C48.2214 30.2982 48.0598 29.7358 47.7087 29.2948C47.3576 28.8538 46.8456 28.5703 46.2855 28.5067C45.7253 28.4432 45.1629 28.6047 44.7219 28.9558C39.7495 32.7266 33.631 34.6714 27.3941 34.4635C21.2075 34.6372 15.1469 32.6942 10.2146 28.9558C9.9962 28.782 9.74572 28.6528 9.47744 28.5758C9.20916 28.4987 8.92832 28.4752 8.65097 28.5067C8.09083 28.5703 7.57889 28.8538 7.22775 29.2948C6.87662 29.7358 6.71507 30.2982 6.77863 30.8584C6.84219 31.4185 7.12566 31.9305 7.56668 32.2816C9.75782 34.0069 12.1919 35.3988 14.7901 36.4123V37.4926C10.8233 36.7581 7.14875 34.9061 4.19857 32.1545C4.2477 24.9988 5.75408 17.9282 8.62584 11.3739C11.71 7.7208 15.9197 5.19501 20.5943 4.19278C21.1204 4.04077 21.5672 3.69093 21.8409 3.21665C22.1147 2.74238 22.1941 2.18052 22.0626 1.64895C21.931 1.11737 21.5988 0.657378 21.1355 0.36547C20.6721 0.073561 20.1138 -0.027583 19.5775 0.0832547C13.9245 1.31149 8.85009 4.40837 5.17299 8.87425C5.17299 8.87425 5.17299 9.02253 5.17299 9.08608L5.02471 9.27673C0.915184 17.75 0.449155 25.4818 0.00430949 32.8747C-0.0148488 33.1746 0.0300196 33.4752 0.135935 33.7564C0.24185 34.0376 0.406388 34.2931 0.61862 34.5058C4.92393 38.8938 10.6735 41.5729 16.8025 42.047C17.3582 42.0447 17.8908 41.8241 18.2853 41.4327C18.4855 41.2365 18.6447 41.0026 18.7538 40.7444C18.8629 40.4862 18.9197 40.209 18.9208 39.9287V37.8104C24.4944 39.1143 30.2937 39.1143 35.8673 37.8104V39.9287C35.8685 40.209 35.9253 40.4862 36.0344 40.7444C36.1434 41.0026 36.3027 41.2365 36.5028 41.4327C36.8974 41.8241 37.4299 42.0447 37.9856 42.047C44.1749 41.6517 50.0062 39.0073 54.3814 34.6117C54.5936 34.399 54.7581 34.1435 54.8641 33.8623C54.97 33.5811 55.0149 33.2805 54.9957 32.9806C54.4873 25.4818 54.0213 17.8347 49.9117 9.27673Z" fill="url(#paint2_linear_490_19)"/>
<path d="M43.2606 11.7975C43.3891 11.55 43.4675 11.2796 43.4912 11.0018C43.515 10.724 43.4837 10.4442 43.399 10.1785C43.3144 9.9128 43.1782 9.66644 42.9981 9.45352C42.818 9.24061 42.5977 9.06534 42.3498 8.93777C37.6849 6.71426 32.5604 5.62547 27.3945 5.7603C22.2286 5.62547 17.104 6.71426 12.4392 8.93777C12.1913 9.06534 11.9709 9.24061 11.7909 9.45352C11.6108 9.66644 11.4746 9.9128 11.39 10.1785C11.3053 10.4442 11.274 10.724 11.2977 11.0018C11.3215 11.2796 11.3998 11.55 11.5283 11.7975C11.7897 12.2946 12.2377 12.6675 12.774 12.8344C13.3103 13.0012 13.8908 12.9483 14.3881 12.6872C18.4536 10.7859 22.9083 9.86448 27.3945 9.99693C31.8807 9.86448 36.3354 10.7859 40.4009 12.6872C40.7006 12.849 41.0348 12.9362 41.3754 12.9414C41.7643 12.9422 42.146 12.8359 42.4786 12.6341C42.8111 12.4323 43.0817 12.1429 43.2606 11.7975Z" fill="url(#paint3_linear_490_19)"/>
<defs>
<linearGradient id="paint0_linear_490_19" x1="14.293" y1="30.7564" x2="28.0286" y2="18.5584" gradientUnits="userSpaceOnUse">
<stop stop-color="#FFF7AE"/>
<stop offset="0.21" stop-color="#9B6326"/>
<stop offset="0.38" stop-color="#FFF7AE"/>
<stop offset="0.53" stop-color="#D3C175"/>
<stop offset="0.65" stop-color="#FCEEC4"/>
<stop offset="0.7" stop-color="#B78626"/>
<stop offset="0.82" stop-color="#FFFACF"/>
<stop offset="1" stop-color="#9B6326"/>
</linearGradient>
<linearGradient id="paint1_linear_490_19" x1="28.2109" y1="30.7564" x2="41.9466" y2="18.5584" gradientUnits="userSpaceOnUse">
<stop stop-color="#FFF7AE"/>
<stop offset="0.21" stop-color="#9B6326"/>
<stop offset="0.38" stop-color="#FFF7AE"/>
<stop offset="0.53" stop-color="#D3C175"/>
<stop offset="0.65" stop-color="#FCEEC4"/>
<stop offset="0.7" stop-color="#B78626"/>
<stop offset="0.82" stop-color="#FFFACF"/>
<stop offset="1" stop-color="#9B6326"/>
</linearGradient>
<linearGradient id="paint2_linear_490_19" x1="0" y1="42.047" x2="40.5751" y2="-11.0277" gradientUnits="userSpaceOnUse">
<stop stop-color="#FFF7AE"/>
<stop offset="0.21" stop-color="#9B6326"/>
<stop offset="0.38" stop-color="#FFF7AE"/>
<stop offset="0.53" stop-color="#D3C175"/>
<stop offset="0.65" stop-color="#FCEEC4"/>
<stop offset="0.7" stop-color="#B78626"/>
<stop offset="0.82" stop-color="#FFFACF"/>
<stop offset="1" stop-color="#9B6326"/>
</linearGradient>
<linearGradient id="paint3_linear_490_19" x1="11.29" y1="12.9414" x2="14.3495" y2="-0.75991" gradientUnits="userSpaceOnUse">
<stop stop-color="#FFF7AE"/>
<stop offset="0.21" stop-color="#9B6326"/>
<stop offset="0.38" stop-color="#FFF7AE"/>
<stop offset="0.53" stop-color="#D3C175"/>
<stop offset="0.65" stop-color="#FCEEC4"/>
<stop offset="0.7" stop-color="#B78626"/>
<stop offset="0.82" stop-color="#FFFACF"/>
<stop offset="1" stop-color="#9B6326"/>
</linearGradient>
</defs>
</svg>
