<svg width="55" height="43" viewBox="0 0 55 43" fill="none" xmlns="http://www.w3.org/2000/svg">
<path d="M14.3029 24.1405C14.2102 25.8688 14.8035 27.5639 15.9539 28.8571C17.1043 30.1503 18.7187 30.937 20.4461 31.0462C22.1696 30.9317 23.7787 30.1426 24.9246 28.85C26.0705 27.5574 26.6609 25.8654 26.568 24.1405C26.6611 22.4134 26.0713 20.719 24.926 19.423C23.7806 18.127 22.1715 17.3335 20.4461 17.2136C18.7168 17.3281 17.1024 18.1194 15.9525 19.416C14.8027 20.7126 14.21 22.41 14.3029 24.1405ZM22.3313 24.1405C22.3313 25.581 21.4628 26.8096 20.4461 26.8096C19.4293 26.8096 18.5396 25.581 18.5396 24.1405C18.5396 22.7 19.4081 21.4502 20.4461 21.4502C21.484 21.4502 22.3313 22.6789 22.3313 24.1405Z" fill="#D4BA64"/>
<path d="M34.3419 17.2136C32.6165 17.3335 31.0074 18.127 29.862 19.423C28.7167 20.719 28.1269 22.4134 28.22 24.1405C28.1271 25.8654 28.7175 27.5574 29.8634 28.85C31.0093 30.1426 32.6183 30.9317 34.3419 31.0462C36.0693 30.937 37.6837 30.1503 38.8341 28.8571C39.9845 27.5639 40.5778 25.8688 40.485 24.1405C40.578 22.41 39.9853 20.7126 38.8355 19.416C37.6856 18.1194 36.0712 17.3281 34.3419 17.2136ZM34.3419 26.8096C33.3252 26.8096 32.4566 25.581 32.4566 24.1405C32.4566 22.7 33.3252 21.4502 34.3419 21.4502C35.3587 21.4502 36.2484 22.6789 36.2484 24.1405C36.2484 25.6021 35.3799 26.8096 34.3419 26.8096Z" fill="#D4BA64"/>
<path d="M49.9117 9.56652L49.7635 9.37588C49.7635 9.37588 49.7635 9.22759 49.7635 9.16405C46.0864 4.69816 41.012 1.60129 35.3589 0.37305C35.0851 0.29391 34.798 0.270869 34.515 0.305307C34.232 0.339745 33.9589 0.430953 33.712 0.573467C33.4651 0.71598 33.2495 0.906867 33.0781 1.13469C32.9067 1.36251 32.7831 1.62259 32.7146 1.89933C32.6461 2.17607 32.6342 2.46379 32.6796 2.74524C32.725 3.0267 32.8267 3.2961 32.9786 3.5373C33.1306 3.77851 33.3297 3.98655 33.564 4.14898C33.7983 4.31141 34.063 4.42487 34.3421 4.48258C39.0168 5.4848 43.2265 8.0106 46.3106 11.6637C49.1678 18.221 50.6598 25.2916 50.6955 32.4443C47.7453 35.1959 44.0708 37.0479 40.104 37.7824V36.8716C40.104 36.8716 40.104 36.7657 40.104 36.7021C42.7154 35.689 45.1635 34.2972 47.3698 32.5714C47.8108 32.2203 48.0943 31.7083 48.1578 31.1482C48.2214 30.588 48.0598 30.0256 47.7087 29.5846C47.3576 29.1436 46.8456 28.8601 46.2855 28.7965C45.7253 28.733 45.1629 28.8945 44.7219 29.2456C39.7495 33.0164 33.631 34.9612 27.3941 34.7533C21.2075 34.927 15.1469 32.984 10.2146 29.2456C9.9962 29.0718 9.74572 28.9426 9.47744 28.8656C9.20916 28.7885 8.92832 28.765 8.65097 28.7965C8.09083 28.8601 7.57889 29.1436 7.22775 29.5846C6.87662 30.0256 6.71507 30.588 6.77863 31.1482C6.84219 31.7083 7.12566 32.2203 7.56668 32.5714C9.75782 34.2967 12.1919 35.6886 14.7901 36.7021V37.7824C10.8233 37.0479 7.14875 35.1959 4.19857 32.4443C4.2477 25.2886 5.75408 18.218 8.62584 11.6637C11.71 8.0106 15.9197 5.4848 20.5943 4.48258C21.1204 4.33056 21.5672 3.98072 21.8409 3.50645C22.1147 3.03217 22.1941 2.47032 22.0626 1.93874C21.931 1.40716 21.5988 0.947173 21.1355 0.655265C20.6721 0.363356 20.1138 0.262212 19.5775 0.37305C13.9245 1.60129 8.85009 4.69816 5.17299 9.16405C5.17299 9.16405 5.17299 9.31233 5.17299 9.37588L5.02471 9.56652C0.915184 18.0398 0.449155 25.7716 0.00430949 33.1645C-0.0148488 33.4644 0.0300196 33.765 0.135935 34.0462C0.24185 34.3274 0.406388 34.5829 0.61862 34.7956C4.92393 39.1836 10.6735 41.8627 16.8025 42.3368C17.3582 42.3345 17.8908 42.1138 18.2853 41.7225C18.4855 41.5263 18.6447 41.2924 18.7538 41.0342C18.8629 40.776 18.9197 40.4988 18.9208 40.2185V38.1002C24.4944 39.4041 30.2937 39.4041 35.8673 38.1002V40.2185C35.8685 40.4988 35.9253 40.776 36.0344 41.0342C36.1434 41.2924 36.3027 41.5263 36.5028 41.7225C36.8974 42.1138 37.4299 42.3345 37.9856 42.3368C44.1749 41.9415 50.0062 39.2971 54.3814 34.9015C54.5936 34.6888 54.7581 34.4333 54.8641 34.1521C54.97 33.8709 55.0149 33.5703 54.9957 33.2704C54.4873 25.7716 54.0213 18.1245 49.9117 9.56652Z" fill="#D4BA64"/>
<path d="M43.2602 12.0873C43.3886 11.8398 43.467 11.5694 43.4908 11.2916C43.5145 11.0138 43.4832 10.734 43.3985 10.4683C43.3139 10.2026 43.1777 9.95623 42.9976 9.74332C42.8176 9.53041 42.5972 9.35514 42.3493 9.22757C37.6845 7.00405 32.5599 5.91527 27.394 6.0501C22.2281 5.91527 17.1035 7.00405 12.4387 9.22757C12.1908 9.35514 11.9705 9.53041 11.7904 9.74332C11.6103 9.95623 11.4741 10.2026 11.3895 10.4683C11.3048 10.734 11.2735 11.0138 11.2972 11.2916C11.321 11.5694 11.3994 11.8398 11.5278 12.0873C11.7892 12.5844 12.2373 12.9573 12.7735 13.1242C13.3098 13.291 13.8903 13.2381 14.3876 12.977C18.4531 11.0757 22.9078 10.1543 27.394 10.2867C31.8802 10.1543 36.3349 11.0757 40.4004 12.977C40.7001 13.1388 41.0343 13.226 41.3749 13.2312C41.7638 13.232 42.1455 13.1257 42.4781 12.9239C42.8107 12.7221 43.0812 12.4327 43.2602 12.0873Z" fill="#D4BA64"/>
</svg>
