<svg width="55" height="39" viewBox="0 0 55 39" fill="none" xmlns="http://www.w3.org/2000/svg">
<path d="M52.8846 13.3654C52.3236 13.3654 51.7855 13.5882 51.3888 13.9849C50.9921 14.3817 50.7692 14.9197 50.7692 15.4807V32.4038C50.7692 32.9649 50.5464 33.5029 50.1497 33.8996C49.7529 34.2963 49.2149 34.5192 48.6538 34.5192H6.34615C5.78512 34.5192 5.24706 34.2963 4.85035 33.8996C4.45364 33.5029 4.23077 32.9649 4.23077 32.4038V15.4807C4.23077 14.9197 4.0079 14.3817 3.61119 13.9849C3.21448 13.5882 2.67642 13.3654 2.11538 13.3654C1.55435 13.3654 1.01629 13.5882 0.619582 13.9849C0.22287 14.3817 0 14.9197 0 15.4807V32.4038C0.00148121 34.0864 0.671064 35.6994 1.86154 36.8884C3.05053 38.0789 4.66362 38.7485 6.34615 38.75H48.6538C50.3364 38.7485 51.9495 38.0789 53.1385 36.8884C54.3289 35.6994 54.9985 34.0864 55 32.4038V15.4807C55 14.9197 54.7771 14.3817 54.3804 13.9849C53.9837 13.5882 53.4456 13.3654 52.8846 13.3654Z" fill="#D4BA64"/>
<path d="M26.2307 25.6346C26.5969 25.9093 27.0422 26.0577 27.4999 26.0577C27.9576 26.0577 28.403 25.9093 28.7692 25.6346L53.7518 6.89233C54.1416 6.59844 54.4177 6.17881 54.5333 5.70459C54.649 5.23036 54.5971 4.73073 54.3865 4.2904C54.0714 3.63955 53.6496 3.04607 53.1384 2.53463C51.9494 1.34416 50.3363 0.674577 48.6538 0.673096H6.34608C4.66354 0.674577 3.05046 1.34416 1.86146 2.53463C1.35029 3.04607 0.928426 3.63955 0.613387 4.2904C0.40273 4.73073 0.350833 5.23036 0.466497 5.70459C0.582161 6.17881 0.858267 6.59844 1.248 6.89233L26.2307 25.6346ZM6.34608 4.90387H48.6538C48.85 4.87296 49.0499 4.87296 49.2461 4.90387L27.4999 21.2981L5.75377 4.90387C5.95 4.87296 6.14985 4.87296 6.34608 4.90387Z" fill="#D4BA64"/>
</svg>
