<svg width="32" height="32" viewBox="0 0 32 32" fill="none" xmlns="http://www.w3.org/2000/svg">
<path d="M15.999 0C7.164 0.002 0.002 7.164 0 15.999C0.002 24.837 7.164 31.999 15.999 32C24.837 31.998 31.999 24.837 32 15.999C31.999 7.164 24.837 0.002 15.999 0ZM2.052 17.001H7.04C7.111 18.86 7.366 20.528 7.76 22H3.373C2.642 20.466 2.182 18.783 2.052 17.001ZM17 8.002V2.212C17.941 2.917 19.991 4.713 21.433 8.003H17V8.002ZM22.169 10.001C22.597 11.438 22.883 13.106 22.964 15.001H17V10.001H22.169ZM14.546 2.565C14.72 2.421 14.868 2.307 15 2.209V8.002H10.562C11.09 6.799 11.699 5.794 12.305 4.969C13.125 3.855 13.943 3.068 14.546 2.565ZM15 10.001V15.001H9.04C9.121 13.097 9.414 11.438 9.845 10.001H15ZM7.04 15.001H2.052C2.181 13.22 2.64 11.535 3.371 10.001H7.76C7.366 11.474 7.111 13.143 7.04 15.001ZM9.035 17.001H15V22H9.83C9.402 20.564 9.116 18.896 9.035 17.001ZM15 24.001V29.79C14.06 29.086 12.009 27.291 10.567 24.001H15ZM17.453 29.436C17.28 29.58 17.131 29.693 17 29.792V24.002H21.437C20.91 25.204 20.3 26.208 19.694 27.033C18.875 28.145 18.056 28.934 17.453 29.436ZM17 22V17.001H22.959C22.878 18.904 22.585 20.563 22.155 22H17ZM24.96 17.001H29.946C29.817 18.782 29.357 20.466 28.626 22H24.24C24.633 20.528 24.888 18.86 24.96 17.001ZM24.96 15.001C24.888 13.142 24.634 11.474 24.239 10.001H28.627C29.358 11.535 29.818 13.22 29.946 15.001H24.96ZM27.473 8.002H23.584C22.703 5.722 21.547 3.99 20.468 2.747C23.332 3.714 25.777 5.574 27.473 8.002ZM11.531 2.747C10.453 3.991 9.296 5.723 8.416 8.002H4.527C6.224 5.574 8.669 3.714 11.531 2.747ZM4.53 24.001H8.417C9.296 26.277 10.451 28.008 11.529 29.251C8.669 28.285 6.226 26.427 4.53 24.001ZM20.47 29.251C21.548 28.008 22.703 26.277 23.583 24.001H27.47C25.774 26.427 23.331 28.285 20.47 29.251Z" fill="url(#paint0_linear_306_29)"/>
<defs>
<linearGradient id="paint0_linear_306_29" x1="0" y1="32" x2="32" y2="0" gradientUnits="userSpaceOnUse">
<stop stop-color="#FFF7AE"/>
<stop offset="0.21" stop-color="#9B6326"/>
<stop offset="0.38" stop-color="#FFF7AE"/>
<stop offset="0.53" stop-color="#D3C175"/>
<stop offset="0.65" stop-color="#FCEEC4"/>
<stop offset="0.7" stop-color="#B78626"/>
<stop offset="0.82" stop-color="#FFFACF"/>
<stop offset="1" stop-color="#9B6326"/>
</linearGradient>
</defs>
</svg>
