<svg width="50" height="50" viewBox="0 0 50 50" fill="none" xmlns="http://www.w3.org/2000/svg">
<path d="M24.8 11.9C17.8 11.9 12 17.6 12 24.7C12 31.8 17.7 37.5 24.8 37.5C31.9 37.5 37.6 31.7 37.6 24.7C37.6 17.7 31.8 11.9 24.8 11.9ZM24.8 32.9C20.3 32.9 16.6 29.2 16.6 24.7C16.6 20.2 20.3 16.5 24.8 16.5C29.3 16.5 33 20.2 33 24.7C33 29.2 29.3 32.9 24.8 32.9Z" fill="url(#paint0_linear_490_30)"/>
<path d="M38.1002 14.5C39.7018 14.5 41.0002 13.2016 41.0002 11.6C41.0002 9.99832 39.7018 8.69995 38.1002 8.69995C36.4986 8.69995 35.2002 9.99832 35.2002 11.6C35.2002 13.2016 36.4986 14.5 38.1002 14.5Z" fill="url(#paint1_linear_490_30)"/>
<path d="M45.6 4.1C43 1.4 39.3 0 35.1 0H14.5C5.8 0 0 5.8 0 14.5V35C0 39.3 1.4 43 4.2 45.7C6.9 48.3 10.5 49.6 14.6 49.6H35C39.3 49.6 42.9 48.2 45.5 45.7C48.2 43.1 49.6 39.4 49.6 35.1V14.5C49.6 10.3 48.2 6.7 45.6 4.1ZM45.2 35.1C45.2 38.2 44.1 40.7 42.3 42.4C40.5 44.1 38 45 35 45H14.6C11.6 45 9.1 44.1 7.3 42.4C5.5 40.6 4.6 38.1 4.6 35V14.5C4.6 11.5 5.5 9 7.3 7.2C9 5.5 11.6 4.6 14.6 4.6H35.2C38.2 4.6 40.7 5.5 42.5 7.3C44.2 9.1 45.2 11.6 45.2 14.5V35.1Z" fill="url(#paint2_linear_490_30)"/>
<defs>
<linearGradient id="paint0_linear_490_30" x1="12" y1="37.5" x2="37.6" y2="11.9" gradientUnits="userSpaceOnUse">
<stop stop-color="#FFF7AE"/>
<stop offset="0.21" stop-color="#9B6326"/>
<stop offset="0.38" stop-color="#FFF7AE"/>
<stop offset="0.53" stop-color="#D3C175"/>
<stop offset="0.65" stop-color="#FCEEC4"/>
<stop offset="0.7" stop-color="#B78626"/>
<stop offset="0.82" stop-color="#FFFACF"/>
<stop offset="1" stop-color="#9B6326"/>
</linearGradient>
<linearGradient id="paint1_linear_490_30" x1="35.2002" y1="14.5" x2="41.0002" y2="8.69995" gradientUnits="userSpaceOnUse">
<stop stop-color="#FFF7AE"/>
<stop offset="0.21" stop-color="#9B6326"/>
<stop offset="0.38" stop-color="#FFF7AE"/>
<stop offset="0.53" stop-color="#D3C175"/>
<stop offset="0.65" stop-color="#FCEEC4"/>
<stop offset="0.7" stop-color="#B78626"/>
<stop offset="0.82" stop-color="#FFFACF"/>
<stop offset="1" stop-color="#9B6326"/>
</linearGradient>
<linearGradient id="paint2_linear_490_30" x1="0" y1="49.6" x2="49.6" y2="3.8147e-06" gradientUnits="userSpaceOnUse">
<stop stop-color="#FFF7AE"/>
<stop offset="0.21" stop-color="#9B6326"/>
<stop offset="0.38" stop-color="#FFF7AE"/>
<stop offset="0.53" stop-color="#D3C175"/>
<stop offset="0.65" stop-color="#FCEEC4"/>
<stop offset="0.7" stop-color="#B78626"/>
<stop offset="0.82" stop-color="#FFFACF"/>
<stop offset="1" stop-color="#9B6326"/>
</linearGradient>
</defs>
</svg>
