<svg width="9" height="14" viewBox="0 0 9 14" fill="none" xmlns="http://www.w3.org/2000/svg">
<path d="M2.26812 0.314106C2.29554 0.223399 2.35245 0.14377 2.43033 0.0871448C2.5082 0.0305192 2.60285 -5.52848e-05 2.70009 7.50457e-08H6.29986C6.37112 5.26663e-05 6.44135 0.0165593 6.50477 0.048161C6.56818 0.0797627 6.62297 0.125556 6.66462 0.181771C6.70627 0.237985 6.7336 0.303014 6.74434 0.371503C6.75509 0.439993 6.74895 0.509984 6.72643 0.575716L5.12454 5.24969H8.54972C8.63398 5.24963 8.71657 5.27258 8.78808 5.31592C8.85958 5.35926 8.91714 5.42125 8.95418 5.49484C8.99123 5.56842 9.00628 5.65064 8.99762 5.73213C8.98896 5.81362 8.95693 5.89111 8.90519 5.95577L2.6056 13.8303C2.54106 13.9114 2.4493 13.9678 2.34632 13.9898C2.24335 14.0118 2.1357 13.9979 2.04216 13.9507C1.94862 13.9034 1.87513 13.8256 1.83452 13.731C1.79391 13.6364 1.78875 13.531 1.81995 13.4331L3.44074 8.31201H0.450235C0.380277 8.31205 0.311274 8.29623 0.248705 8.2658C0.186136 8.23538 0.131724 8.1912 0.0897921 8.13675C0.0478596 8.08231 0.0195614 8.01911 0.00714454 7.95218C-0.00527228 7.88525 -0.00146563 7.81642 0.0182623 7.75116L2.26812 0.314106Z" fill="black"/>
</svg>
