<svg width="44" height="44" viewBox="0 0 44 44" fill="none" xmlns="http://www.w3.org/2000/svg">
<path d="M0.849439 22.9549C0.860503 22.9659 0.871825 22.9768 0.88342 22.9877C0.894133 22.9991 0.905118 23.0104 0.916376 23.0216L0.918673 23.0239L6.15774 28.1549C6.15817 28.1554 6.1586 28.1558 6.15902 28.1562C6.25565 28.2519 6.37186 28.343 6.51815 28.4075C6.66715 28.4732 6.82164 28.5 6.98027 28.5C7.22707 28.5 7.51014 28.3953 7.67284 28.3146L7.74534 28.2786L7.8028 28.2216C8.26872 27.7594 8.26872 27.0406 7.8028 26.5784L4.49836 23.3H24.6531C24.9671 23.3 25.2682 23.1941 25.4924 22.9716C25.717 22.7488 25.825 22.4482 25.825 22.1333C25.825 21.8185 25.717 21.5179 25.4924 21.2951C25.2682 21.0726 24.9671 20.9667 24.6531 20.9667H4.49858L7.46707 18.0216C7.933 17.5594 7.933 16.8406 7.46708 16.3784C7.00335 15.9183 6.28574 15.9183 5.82202 16.3784L0.849441 21.3117C0.38352 21.774 0.38352 22.4927 0.849439 22.9549ZM17.6648 43.5H39.3694C41.6389 43.5 43.5705 41.696 43.4981 39.3919V4.6C43.4981 2.32013 41.6577 0.5 39.3694 0.5H17.6648C15.3765 0.5 13.5361 2.32013 13.5361 4.6V15.4667C13.5361 15.7815 13.6442 16.0821 13.8688 16.305C14.093 16.5274 14.3941 16.6333 14.7081 16.6333C15.0222 16.6333 15.3232 16.5274 15.5474 16.305C15.772 16.0821 15.8801 15.7815 15.8801 15.4667V4.6C15.8801 3.6132 16.6604 2.83333 17.6648 2.83333H39.3694C40.3738 2.83333 41.1541 3.6132 41.1541 4.6V39.4C41.1541 40.3868 40.3738 41.1667 39.3694 41.1667H17.6648C16.6604 41.1667 15.8801 40.3868 15.8801 39.4V28.9333C15.8801 28.6185 15.772 28.3179 15.5474 28.0951C15.3232 27.8726 15.0222 27.7667 14.7081 27.7667C14.3941 27.7667 14.093 27.8726 13.8688 28.095C13.6442 28.3179 13.5361 28.6185 13.5361 28.9333V39.4C13.5361 41.6799 15.3765 43.5 17.6648 43.5Z" fill="#D4BA64" stroke="#D4BA64"/>
</svg>
