<svg width="55" height="39" viewBox="0 0 55 39" fill="none" xmlns="http://www.w3.org/2000/svg">
<path d="M52.8846 12.6923C52.3236 12.6923 51.7855 12.9151 51.3888 13.3118C50.9921 13.7086 50.7692 14.2466 50.7692 14.8076V31.7307C50.7692 32.2918 50.5464 32.8298 50.1497 33.2265C49.7529 33.6232 49.2149 33.8461 48.6538 33.8461H6.34615C5.78512 33.8461 5.24706 33.6232 4.85035 33.2265C4.45364 32.8298 4.23077 32.2918 4.23077 31.7307V14.8076C4.23077 14.2466 4.0079 13.7086 3.61119 13.3118C3.21448 12.9151 2.67642 12.6923 2.11538 12.6923C1.55435 12.6923 1.01629 12.9151 0.619582 13.3118C0.22287 13.7086 0 14.2466 0 14.8076V31.7307C0.00148121 33.4133 0.671064 35.0263 1.86154 36.2153C3.05053 37.4058 4.66362 38.0754 6.34615 38.0769H48.6538C50.3364 38.0754 51.9495 37.4058 53.1385 36.2153C54.3289 35.0263 54.9985 33.4133 55 31.7307V14.8076C55 14.2466 54.7771 13.7086 54.3804 13.3118C53.9837 12.9151 53.4456 12.6923 52.8846 12.6923Z" fill="url(#paint0_linear_490_24)"/>
<path d="M26.2307 24.9615C26.5969 25.2362 27.0422 25.3846 27.4999 25.3846C27.9576 25.3846 28.403 25.2362 28.7692 24.9615L53.7518 6.21923C54.1416 5.92534 54.4177 5.50571 54.5333 5.03149C54.649 4.55727 54.5971 4.05764 54.3865 3.61731C54.0714 2.96645 53.6496 2.37298 53.1384 1.86154C51.9494 0.671064 50.3363 0.00148121 48.6538 0H6.34608C4.66354 0.00148121 3.05046 0.671064 1.86146 1.86154C1.35029 2.37298 0.928426 2.96645 0.613387 3.61731C0.40273 4.05764 0.350833 4.55727 0.466497 5.03149C0.582161 5.50571 0.858267 5.92534 1.248 6.21923L26.2307 24.9615ZM6.34608 4.23077H48.6538C48.85 4.19987 49.0499 4.19987 49.2461 4.23077L27.4999 20.625L5.75377 4.23077C5.95 4.19987 6.14985 4.19987 6.34608 4.23077Z" fill="url(#paint1_linear_490_24)"/>
<defs>
<linearGradient id="paint0_linear_490_24" x1="0" y1="38.0769" x2="19.3171" y2="-3.77678" gradientUnits="userSpaceOnUse">
<stop stop-color="#FFF7AE"/>
<stop offset="0.21" stop-color="#9B6326"/>
<stop offset="0.38" stop-color="#FFF7AE"/>
<stop offset="0.53" stop-color="#D3C175"/>
<stop offset="0.65" stop-color="#FCEEC4"/>
<stop offset="0.7" stop-color="#B78626"/>
<stop offset="0.82" stop-color="#FFFACF"/>
<stop offset="1" stop-color="#9B6326"/>
</linearGradient>
<linearGradient id="paint1_linear_490_24" x1="0.40625" y1="25.3846" x2="19.9095" y2="-16.2481" gradientUnits="userSpaceOnUse">
<stop stop-color="#FFF7AE"/>
<stop offset="0.21" stop-color="#9B6326"/>
<stop offset="0.38" stop-color="#FFF7AE"/>
<stop offset="0.53" stop-color="#D3C175"/>
<stop offset="0.65" stop-color="#FCEEC4"/>
<stop offset="0.7" stop-color="#B78626"/>
<stop offset="0.82" stop-color="#FFFACF"/>
<stop offset="1" stop-color="#9B6326"/>
</linearGradient>
</defs>
</svg>
