<svg width="161" height="29" viewBox="0 0 161 29" fill="none" xmlns="http://www.w3.org/2000/svg">
<path d="M23.6193 14.9091C23.6193 17.7045 23.108 20.108 22.0852 22.1193C21.0625 24.1222 19.6605 25.6648 17.8793 26.7472C16.1065 27.821 14.0909 28.358 11.8324 28.358C9.56534 28.358 7.54119 27.821 5.75994 26.7472C3.98722 25.6648 2.58949 24.1179 1.56676 22.1065C0.544034 20.0952 0.0326705 17.696 0.0326705 14.9091C0.0326705 12.1136 0.544034 9.71449 1.56676 7.71165C2.58949 5.70028 3.98722 4.15767 5.75994 3.08381C7.54119 2.00142 9.56534 1.46023 11.8324 1.46023C14.0909 1.46023 16.1065 2.00142 17.8793 3.08381C19.6605 4.15767 21.0625 5.70028 22.0852 7.71165C23.108 9.71449 23.6193 12.1136 23.6193 14.9091ZM19.7074 14.9091C19.7074 12.7784 19.3622 10.9844 18.6719 9.52699C17.9901 8.06108 17.0526 6.95313 15.8594 6.20312C14.6747 5.4446 13.3324 5.06534 11.8324 5.06534C10.3239 5.06534 8.97727 5.4446 7.79261 6.20312C6.60795 6.95313 5.67045 8.06108 4.98011 9.52699C4.2983 10.9844 3.95739 12.7784 3.95739 14.9091C3.95739 17.0398 4.2983 18.8381 4.98011 20.304C5.67045 21.7614 6.60795 22.8693 7.79261 23.6278C8.97727 24.3778 10.3239 24.7528 11.8324 24.7528C13.3324 24.7528 14.6747 24.3778 15.8594 23.6278C17.0526 22.8693 17.9901 21.7614 18.6719 20.304C19.3622 18.8381 19.7074 17.0398 19.7074 14.9091ZM45.0359 8.36364L37.9151 28H33.8242L26.6907 8.36364H30.7944L35.7674 23.4744H35.9719L40.9322 8.36364H45.0359ZM56.4233 28.3963C54.4886 28.3963 52.8224 27.983 51.4247 27.1562C50.0355 26.321 48.9616 25.1491 48.2031 23.6406C47.4531 22.1236 47.0781 20.3466 47.0781 18.3097C47.0781 16.2983 47.4531 14.5256 48.2031 12.9915C48.9616 11.4574 50.0185 10.2599 51.3736 9.39915C52.7372 8.53835 54.331 8.10795 56.1548 8.10795C57.2628 8.10795 58.3366 8.29119 59.3764 8.65767C60.4162 9.02415 61.3494 9.59943 62.1761 10.3835C63.0028 11.1676 63.6548 12.1861 64.1321 13.4389C64.6094 14.6832 64.848 16.196 64.848 17.9773V19.3324H49.2386V16.4688H61.1023C61.1023 15.4631 60.8977 14.5724 60.4886 13.7969C60.0795 13.0128 59.5043 12.3949 58.7628 11.9432C58.0298 11.4915 57.169 11.2656 56.1804 11.2656C55.1065 11.2656 54.169 11.5298 53.3679 12.0582C52.5753 12.5781 51.9616 13.2599 51.527 14.1037C51.1009 14.9389 50.8878 15.8466 50.8878 16.8267V19.0639C50.8878 20.3764 51.1179 21.4929 51.5781 22.4134C52.0469 23.3338 52.6989 24.0369 53.5341 24.5227C54.3693 25 55.3452 25.2386 56.4616 25.2386C57.1861 25.2386 57.8466 25.1364 58.4432 24.9318C59.0398 24.7187 59.5554 24.4034 59.9901 23.9858C60.4247 23.5682 60.7571 23.0526 60.9872 22.4389L64.6051 23.0909C64.3153 24.1562 63.7955 25.0895 63.0455 25.8906C62.304 26.6832 61.3707 27.3011 60.2457 27.7443C59.1293 28.179 57.8551 28.3963 56.4233 28.3963ZM69.0891 28V8.36364H72.7837V11.483H72.9883C73.3462 10.4261 73.9769 9.59517 74.8803 8.99006C75.7923 8.37642 76.8235 8.0696 77.9741 8.0696C78.2127 8.0696 78.494 8.07812 78.8178 8.09517C79.1502 8.11221 79.4102 8.13352 79.5977 8.15909V11.8153C79.4442 11.7727 79.1715 11.7259 78.7795 11.6747C78.3874 11.6151 77.9954 11.5852 77.6033 11.5852C76.6999 11.5852 75.8945 11.777 75.1871 12.1605C74.4883 12.5355 73.9343 13.0597 73.5252 13.733C73.1161 14.3977 72.9116 15.1562 72.9116 16.0085V28H69.0891ZM100.301 8.36364L93.1808 28H89.0898L81.9563 8.36364H86.06L91.033 23.4744H91.2376L96.1978 8.36364H100.301ZM103.894 28V8.36364H107.716V28H103.894ZM105.824 5.33381C105.159 5.33381 104.588 5.11221 104.111 4.66903C103.642 4.21733 103.408 3.6804 103.408 3.05824C103.408 2.42756 103.642 1.89062 104.111 1.44744C104.588 0.995738 105.159 0.769886 105.824 0.769886C106.489 0.769886 107.056 0.995738 107.525 1.44744C108.002 1.89062 108.24 2.42756 108.24 3.05824C108.24 3.6804 108.002 4.21733 107.525 4.66903C107.056 5.11221 106.489 5.33381 105.824 5.33381ZM121.322 28.3963C119.387 28.3963 117.721 27.983 116.323 27.1562C114.934 26.321 113.86 25.1491 113.102 23.6406C112.352 22.1236 111.977 20.3466 111.977 18.3097C111.977 16.2983 112.352 14.5256 113.102 12.9915C113.86 11.4574 114.917 10.2599 116.272 9.39915C117.636 8.53835 119.229 8.10795 121.053 8.10795C122.161 8.10795 123.235 8.29119 124.275 8.65767C125.315 9.02415 126.248 9.59943 127.075 10.3835C127.901 11.1676 128.553 12.1861 129.031 13.4389C129.508 14.6832 129.746 16.196 129.746 17.9773V19.3324H114.137V16.4688H126.001C126.001 15.4631 125.796 14.5724 125.387 13.7969C124.978 13.0128 124.403 12.3949 123.661 11.9432C122.928 11.4915 122.067 11.2656 121.079 11.2656C120.005 11.2656 119.067 11.5298 118.266 12.0582C117.474 12.5781 116.86 13.2599 116.425 14.1037C115.999 14.9389 115.786 15.8466 115.786 16.8267V19.0639C115.786 20.3764 116.016 21.4929 116.477 22.4134C116.945 23.3338 117.597 24.0369 118.433 24.5227C119.268 25 120.244 25.2386 121.36 25.2386C122.085 25.2386 122.745 25.1364 123.342 24.9318C123.938 24.7187 124.454 24.4034 124.888 23.9858C125.323 23.5682 125.656 23.0526 125.886 22.4389L129.504 23.0909C129.214 24.1562 128.694 25.0895 127.944 25.8906C127.202 26.6832 126.269 27.3011 125.144 27.7443C124.028 28.179 122.754 28.3963 121.322 28.3963ZM138.21 28L132.431 8.36364H136.381L140.229 22.7841H140.421L144.282 8.36364H148.232L152.067 22.7202H152.259L156.082 8.36364H160.032L154.266 28H150.367L146.379 13.8224H146.085L142.096 28H138.21Z" fill="url(#paint0_linear_480_478)"/>
<defs>
<linearGradient id="paint0_linear_480_478" x1="171" y1="-7" x2="149.978" y2="75.6534" gradientUnits="userSpaceOnUse">
<stop stop-color="#FFF7AE"/>
<stop offset="0.21" stop-color="#9B6326"/>
<stop offset="0.38" stop-color="#FFF7AE"/>
<stop offset="0.53" stop-color="#D3C175"/>
<stop offset="0.65" stop-color="#FCEEC4"/>
<stop offset="0.7" stop-color="#B78626"/>
<stop offset="0.82" stop-color="#FFFACF"/>
<stop offset="1" stop-color="#9B6326"/>
</linearGradient>
</defs>
</svg>
