<svg width="42" height="42" viewBox="0 0 42 42" fill="none" xmlns="http://www.w3.org/2000/svg">
<path d="M39 21C39 30.9411 30.9411 39 21 39C11.0589 39 3 30.9411 3 21C3 11.0589 11.0589 3 21 3C30.9411 3 39 11.0589 39 21Z" fill="#1A1A1A"/>
<path d="M21 9.1875C17.0133 9.1875 13.7812 12.4195 13.7812 16.4062C13.7812 20.393 17.0133 23.625 21 23.625C24.9867 23.625 28.2188 20.393 28.2188 16.4062C28.2188 12.4195 24.9867 9.1875 21 9.1875ZM21 19.6875C19.1904 19.6875 17.7188 18.215 17.7188 16.4062C17.7188 14.5934 19.1871 13.125 21 13.125C22.8129 13.125 24.2812 14.5966 24.2812 16.4062C24.2812 18.2191 22.8129 19.6875 21 19.6875ZM21 0C9.40078 0 0 9.40078 0 21C0 32.5992 9.40078 42 21 42C32.5992 42 42 32.5992 42 21C42 9.40078 32.5992 0 21 0ZM21 38.0625C17.1667 38.0625 13.6369 36.7762 10.7871 34.6344C12.2063 31.9102 14.9625 30.1875 18.0633 30.1875H23.9441C27.0408 30.1875 29.7938 31.911 31.2186 34.6344C28.3664 36.7746 24.8309 38.0625 21 38.0625ZM34.1414 31.8691C31.9266 28.4074 28.1531 26.25 23.9367 26.25H18.0633C13.8502 26.25 10.0775 28.4033 7.85859 31.8675C5.41078 28.916 3.9375 25.1262 3.9375 21C3.9375 11.591 11.5918 3.9375 21 3.9375C30.4082 3.9375 38.0625 11.5918 38.0625 21C38.0625 25.1262 36.5859 28.916 34.1414 31.8691Z" fill="#D4BA64"/>
</svg>
