<svg width="32" height="32" viewBox="0 0 32 32" fill="none" xmlns="http://www.w3.org/2000/svg">
<path d="M32 17.9764C32 20.1895 30.6569 21.9832 29 21.9832C26.9731 21.9832 27.0175 19.9798 25.5225 19.9798C24.6812 19.9798 24 20.6622 24 21.5074V29.9966C24 31.1029 23.1044 32 22 32H17.5225C16.6812 32 16 31.3176 16 30.4724C16 28.9386 18 29.02 18 26.9916C18 25.3319 16.2094 23.9865 14 23.9865C11.7906 23.9865 10 25.3319 10 26.9916C10 29.0219 12 28.9774 12 30.4749C12 31.3176 11.3188 32 10.475 32H2C0.895625 32 0 31.1029 0 29.9966V21.5074C0 20.6622 0.681875 19.9798 1.5225 19.9798C3.00313 19.9798 2.975 21.9832 5 21.9832C6.65625 21.9832 8 20.1864 8 17.9764C8 15.7665 6.65625 13.9134 5 13.9134C2.97312 13.9134 3.0175 15.9167 1.5225 15.9167C0.681875 15.9167 0 15.2907 0 14.4455V9.96048C0 8.85425 0.895625 8.01346 2 8.01346H10.475C11.3188 7.90328 12 7.27722 12 6.43205C12 4.94894 10 4.97711 10 2.9487C10 1.28904 11.7906 0 14 0C16.2094 0 18 1.34538 18 2.9487C18 4.97899 16 4.93454 16 6.43205C16 7.27409 16.6819 7.95712 17.5225 7.95712H22C23.1044 7.95712 24 8.85425 24 9.90414V14.3892C24 15.2312 24.6819 15.9142 25.5225 15.9142C27.0031 15.9142 26.975 13.9109 29 13.9109C30.6562 13.9134 32 15.7665 32 17.9764Z" fill="url(#paint0_angular_311_99)"/>
<defs>
<radialGradient id="paint0_angular_311_99" cx="0" cy="0" r="1" gradientUnits="userSpaceOnUse" gradientTransform="translate(16 16) rotate(135) scale(22.6274)">
<stop stop-color="#FFF7AE"/>
<stop offset="0.21" stop-color="#9B6326"/>
<stop offset="0.38" stop-color="#FFF7AE"/>
<stop offset="0.53" stop-color="#D3C175"/>
<stop offset="0.65" stop-color="#FCEEC4"/>
<stop offset="0.7" stop-color="#B78626"/>
<stop offset="0.82" stop-color="#FFFACF"/>
<stop offset="1" stop-color="#9B6326"/>
</radialGradient>
</defs>
</svg>
