<svg width="916" height="85" viewBox="0 0 916 85" fill="none" xmlns="http://www.w3.org/2000/svg">
<g filter="url(#filter0_d_218_8)">
<mask id="path-1-outside-1_218_8" maskUnits="userSpaceOnUse" x="-1" y="-1" width="910" height="79" fill="black">
<rect fill="white" x="-1" y="-1" width="910" height="79"/>
<path d="M1.6875 75V2.27273H33.0795C38.4773 2.27273 43.2003 3.25521 47.2486 5.22017C51.2969 7.18513 54.4456 10.0142 56.6946 13.7074C58.9437 17.4006 60.0682 21.8276 60.0682 26.9886C60.0682 32.197 58.9081 36.5885 56.5881 40.1634C54.2917 43.7382 51.0601 46.437 46.8935 48.2599C42.7505 50.0829 37.9091 50.9943 32.3693 50.9943H13.6193V35.6534H28.392C30.7121 35.6534 32.6889 35.3693 34.3224 34.8011C35.9796 34.2093 37.2462 33.2741 38.1222 31.9957C39.0218 30.7173 39.4716 29.0483 39.4716 26.9886C39.4716 24.9053 39.0218 23.2126 38.1222 21.9105C37.2462 20.5848 35.9796 19.6141 34.3224 18.9986C32.6889 18.3594 30.7121 18.0398 28.392 18.0398H21.4318V75H1.6875ZM44.3011 41.6193L62.483 75H41.0341L23.2784 41.6193H44.3011ZM138.939 38.6364C138.939 46.733 137.365 53.563 134.216 59.1264C131.067 64.6662 126.818 68.8684 121.467 71.733C116.117 74.5739 110.151 75.9943 103.57 75.9943C96.9408 75.9943 90.9512 74.562 85.6009 71.6974C80.2741 68.8092 76.0365 64.5952 72.8878 59.0554C69.7628 53.492 68.2003 46.6856 68.2003 38.6364C68.2003 30.5398 69.7628 23.7216 72.8878 18.1818C76.0365 12.6184 80.2741 8.41619 85.6009 5.57528C90.9512 2.7107 96.9408 1.27841 103.57 1.27841C110.151 1.27841 116.117 2.7107 121.467 5.57528C126.818 8.41619 131.067 12.6184 134.216 18.1818C137.365 23.7216 138.939 30.5398 138.939 38.6364ZM118.626 38.6364C118.626 34.2803 118.046 30.6108 116.886 27.6278C115.75 24.6212 114.057 22.3485 111.808 20.8097C109.583 19.2472 106.837 18.4659 103.57 18.4659C100.303 18.4659 97.5445 19.2472 95.2955 20.8097C93.0701 22.3485 91.3774 24.6212 90.2173 27.6278C89.081 30.6108 88.5128 34.2803 88.5128 38.6364C88.5128 42.9924 89.081 46.6738 90.2173 49.6804C91.3774 52.6634 93.0701 54.9361 95.2955 56.4986C97.5445 58.0374 100.303 58.8068 103.57 58.8068C106.837 58.8068 109.583 58.0374 111.808 56.4986C114.057 54.9361 115.75 52.6634 116.886 49.6804C118.046 46.6738 118.626 42.9924 118.626 38.6364ZM162.376 75H141.07L165.075 2.27273H192.064L216.07 75H194.763L178.854 22.3011H178.286L162.376 75ZM158.399 46.3068H198.456V61.0795H158.399V46.3068ZM251.057 75H223.074V2.27273H250.773C258.254 2.27273 264.717 3.72869 270.162 6.64062C275.631 9.52888 279.845 13.6955 282.804 19.1406C285.787 24.562 287.279 31.0606 287.279 38.6364C287.279 46.2121 285.799 52.7225 282.84 58.1676C279.881 63.589 275.69 67.7557 270.269 70.6676C264.847 73.5559 258.444 75 251.057 75ZM242.819 58.2386H250.347C253.945 58.2386 257.011 57.6586 259.544 56.4986C262.101 55.3385 264.042 53.3381 265.368 50.4972C266.718 47.6562 267.392 43.7027 267.392 38.6364C267.392 33.5701 266.706 29.6165 265.333 26.7756C263.983 23.9347 261.995 21.9342 259.367 20.7741C256.763 19.6141 253.567 19.0341 249.779 19.0341H242.819V58.2386ZM314.347 18.1818V2.27273H377.558V18.1818H355.683V75H336.222V18.1818H314.347ZM452.025 38.6364C452.025 46.733 450.451 53.563 447.302 59.1264C444.153 64.6662 439.904 68.8684 434.553 71.733C429.203 74.5739 423.237 75.9943 416.656 75.9943C410.027 75.9943 404.037 74.562 398.687 71.6974C393.36 68.8092 389.122 64.5952 385.974 59.0554C382.849 53.492 381.286 46.6856 381.286 38.6364C381.286 30.5398 382.849 23.7216 385.974 18.1818C389.122 12.6184 393.36 8.41619 398.687 5.57528C404.037 2.7107 410.027 1.27841 416.656 1.27841C423.237 1.27841 429.203 2.7107 434.553 5.57528C439.904 8.41619 444.153 12.6184 447.302 18.1818C450.451 23.7216 452.025 30.5398 452.025 38.6364ZM431.712 38.6364C431.712 34.2803 431.132 30.6108 429.972 27.6278C428.836 24.6212 427.143 22.3485 424.894 20.8097C422.669 19.2472 419.923 18.4659 416.656 18.4659C413.388 18.4659 410.63 19.2472 408.381 20.8097C406.156 22.3485 404.463 24.6212 403.303 27.6278C402.167 30.6108 401.599 34.2803 401.599 38.6364C401.599 42.9924 402.167 46.6738 403.303 49.6804C404.463 52.6634 406.156 54.9361 408.381 56.4986C410.63 58.0374 413.388 58.8068 416.656 58.8068C419.923 58.8068 422.669 58.0374 424.894 56.4986C427.143 54.9361 428.836 52.6634 429.972 49.6804C431.132 46.6738 431.712 42.9924 431.712 38.6364ZM502.247 2.27273L514.179 23.4375H514.747L526.821 2.27273H548.838L527.105 38.6364L549.69 75H527.105L514.747 53.4091H514.179L501.821 75H479.377L501.679 38.6364L480.088 2.27273H502.247ZM555.363 18.1818V2.27273H618.573V18.1818H596.698V75H577.238V18.1818H555.363ZM688.93 2.27273V75H672.453L646.174 36.7898H645.748V75H626.004V2.27273H642.765L668.618 40.3409H669.186V2.27273H688.93ZM766.167 29.5455H746.139C745.997 27.8883 745.618 26.3849 745.002 25.0355C744.411 23.6861 743.582 22.526 742.517 21.5554C741.475 20.5611 740.208 19.8035 738.717 19.2827C737.225 18.7382 735.533 18.4659 733.639 18.4659C730.324 18.4659 727.519 19.2708 725.223 20.8807C722.95 22.4905 721.222 24.7988 720.038 27.8054C718.878 30.812 718.298 34.4223 718.298 38.6364C718.298 43.0871 718.89 46.8158 720.074 49.8224C721.281 52.8054 723.021 55.0545 725.294 56.5696C727.566 58.0611 730.301 58.8068 733.497 58.8068C735.32 58.8068 736.953 58.5819 738.397 58.1321C739.842 57.6586 741.096 56.9839 742.162 56.108C743.227 55.232 744.091 54.1785 744.754 52.9474C745.44 51.6927 745.902 50.2841 746.139 48.7216L766.167 48.8636C765.931 51.9413 765.066 55.0781 763.575 58.2741C762.083 61.4465 759.965 64.3821 757.218 67.081C754.496 69.7562 751.122 71.9105 747.098 73.544C743.073 75.1776 738.397 75.9943 733.071 75.9943C726.395 75.9943 720.405 74.562 715.102 71.6974C709.823 68.8329 705.644 64.6188 702.566 59.0554C699.512 53.492 697.985 46.6856 697.985 38.6364C697.985 30.5398 699.548 23.7216 702.673 18.1818C705.798 12.6184 710.012 8.41619 715.315 5.57528C720.618 2.7107 726.537 1.27841 733.071 1.27841C737.663 1.27841 741.889 1.90577 745.748 3.16051C749.607 4.41524 752.993 6.25 755.904 8.66477C758.816 11.0559 761.16 14.0033 762.936 17.5071C764.711 21.0109 765.788 25.0237 766.167 29.5455ZM773.136 18.1818V2.27273H836.347V18.1818H814.472V75H795.011V18.1818H773.136ZM906.703 2.27273V75H890.226L863.948 36.7898H863.522V75H843.777V2.27273H860.539L886.391 40.3409H886.959V2.27273H906.703Z"/>
</mask>
<path d="M1.6875 75V2.27273H33.0795C38.4773 2.27273 43.2003 3.25521 47.2486 5.22017C51.2969 7.18513 54.4456 10.0142 56.6946 13.7074C58.9437 17.4006 60.0682 21.8276 60.0682 26.9886C60.0682 32.197 58.9081 36.5885 56.5881 40.1634C54.2917 43.7382 51.0601 46.437 46.8935 48.2599C42.7505 50.0829 37.9091 50.9943 32.3693 50.9943H13.6193V35.6534H28.392C30.7121 35.6534 32.6889 35.3693 34.3224 34.8011C35.9796 34.2093 37.2462 33.2741 38.1222 31.9957C39.0218 30.7173 39.4716 29.0483 39.4716 26.9886C39.4716 24.9053 39.0218 23.2126 38.1222 21.9105C37.2462 20.5848 35.9796 19.6141 34.3224 18.9986C32.6889 18.3594 30.7121 18.0398 28.392 18.0398H21.4318V75H1.6875ZM44.3011 41.6193L62.483 75H41.0341L23.2784 41.6193H44.3011ZM138.939 38.6364C138.939 46.733 137.365 53.563 134.216 59.1264C131.067 64.6662 126.818 68.8684 121.467 71.733C116.117 74.5739 110.151 75.9943 103.57 75.9943C96.9408 75.9943 90.9512 74.562 85.6009 71.6974C80.2741 68.8092 76.0365 64.5952 72.8878 59.0554C69.7628 53.492 68.2003 46.6856 68.2003 38.6364C68.2003 30.5398 69.7628 23.7216 72.8878 18.1818C76.0365 12.6184 80.2741 8.41619 85.6009 5.57528C90.9512 2.7107 96.9408 1.27841 103.57 1.27841C110.151 1.27841 116.117 2.7107 121.467 5.57528C126.818 8.41619 131.067 12.6184 134.216 18.1818C137.365 23.7216 138.939 30.5398 138.939 38.6364ZM118.626 38.6364C118.626 34.2803 118.046 30.6108 116.886 27.6278C115.75 24.6212 114.057 22.3485 111.808 20.8097C109.583 19.2472 106.837 18.4659 103.57 18.4659C100.303 18.4659 97.5445 19.2472 95.2955 20.8097C93.0701 22.3485 91.3774 24.6212 90.2173 27.6278C89.081 30.6108 88.5128 34.2803 88.5128 38.6364C88.5128 42.9924 89.081 46.6738 90.2173 49.6804C91.3774 52.6634 93.0701 54.9361 95.2955 56.4986C97.5445 58.0374 100.303 58.8068 103.57 58.8068C106.837 58.8068 109.583 58.0374 111.808 56.4986C114.057 54.9361 115.75 52.6634 116.886 49.6804C118.046 46.6738 118.626 42.9924 118.626 38.6364ZM162.376 75H141.07L165.075 2.27273H192.064L216.07 75H194.763L178.854 22.3011H178.286L162.376 75ZM158.399 46.3068H198.456V61.0795H158.399V46.3068ZM251.057 75H223.074V2.27273H250.773C258.254 2.27273 264.717 3.72869 270.162 6.64062C275.631 9.52888 279.845 13.6955 282.804 19.1406C285.787 24.562 287.279 31.0606 287.279 38.6364C287.279 46.2121 285.799 52.7225 282.84 58.1676C279.881 63.589 275.69 67.7557 270.269 70.6676C264.847 73.5559 258.444 75 251.057 75ZM242.819 58.2386H250.347C253.945 58.2386 257.011 57.6586 259.544 56.4986C262.101 55.3385 264.042 53.3381 265.368 50.4972C266.718 47.6562 267.392 43.7027 267.392 38.6364C267.392 33.5701 266.706 29.6165 265.333 26.7756C263.983 23.9347 261.995 21.9342 259.367 20.7741C256.763 19.6141 253.567 19.0341 249.779 19.0341H242.819V58.2386ZM314.347 18.1818V2.27273H377.558V18.1818H355.683V75H336.222V18.1818H314.347ZM452.025 38.6364C452.025 46.733 450.451 53.563 447.302 59.1264C444.153 64.6662 439.904 68.8684 434.553 71.733C429.203 74.5739 423.237 75.9943 416.656 75.9943C410.027 75.9943 404.037 74.562 398.687 71.6974C393.36 68.8092 389.122 64.5952 385.974 59.0554C382.849 53.492 381.286 46.6856 381.286 38.6364C381.286 30.5398 382.849 23.7216 385.974 18.1818C389.122 12.6184 393.36 8.41619 398.687 5.57528C404.037 2.7107 410.027 1.27841 416.656 1.27841C423.237 1.27841 429.203 2.7107 434.553 5.57528C439.904 8.41619 444.153 12.6184 447.302 18.1818C450.451 23.7216 452.025 30.5398 452.025 38.6364ZM431.712 38.6364C431.712 34.2803 431.132 30.6108 429.972 27.6278C428.836 24.6212 427.143 22.3485 424.894 20.8097C422.669 19.2472 419.923 18.4659 416.656 18.4659C413.388 18.4659 410.63 19.2472 408.381 20.8097C406.156 22.3485 404.463 24.6212 403.303 27.6278C402.167 30.6108 401.599 34.2803 401.599 38.6364C401.599 42.9924 402.167 46.6738 403.303 49.6804C404.463 52.6634 406.156 54.9361 408.381 56.4986C410.63 58.0374 413.388 58.8068 416.656 58.8068C419.923 58.8068 422.669 58.0374 424.894 56.4986C427.143 54.9361 428.836 52.6634 429.972 49.6804C431.132 46.6738 431.712 42.9924 431.712 38.6364ZM502.247 2.27273L514.179 23.4375H514.747L526.821 2.27273H548.838L527.105 38.6364L549.69 75H527.105L514.747 53.4091H514.179L501.821 75H479.377L501.679 38.6364L480.088 2.27273H502.247ZM555.363 18.1818V2.27273H618.573V18.1818H596.698V75H577.238V18.1818H555.363ZM688.93 2.27273V75H672.453L646.174 36.7898H645.748V75H626.004V2.27273H642.765L668.618 40.3409H669.186V2.27273H688.93ZM766.167 29.5455H746.139C745.997 27.8883 745.618 26.3849 745.002 25.0355C744.411 23.6861 743.582 22.526 742.517 21.5554C741.475 20.5611 740.208 19.8035 738.717 19.2827C737.225 18.7382 735.533 18.4659 733.639 18.4659C730.324 18.4659 727.519 19.2708 725.223 20.8807C722.95 22.4905 721.222 24.7988 720.038 27.8054C718.878 30.812 718.298 34.4223 718.298 38.6364C718.298 43.0871 718.89 46.8158 720.074 49.8224C721.281 52.8054 723.021 55.0545 725.294 56.5696C727.566 58.0611 730.301 58.8068 733.497 58.8068C735.32 58.8068 736.953 58.5819 738.397 58.1321C739.842 57.6586 741.096 56.9839 742.162 56.108C743.227 55.232 744.091 54.1785 744.754 52.9474C745.44 51.6927 745.902 50.2841 746.139 48.7216L766.167 48.8636C765.931 51.9413 765.066 55.0781 763.575 58.2741C762.083 61.4465 759.965 64.3821 757.218 67.081C754.496 69.7562 751.122 71.9105 747.098 73.544C743.073 75.1776 738.397 75.9943 733.071 75.9943C726.395 75.9943 720.405 74.562 715.102 71.6974C709.823 68.8329 705.644 64.6188 702.566 59.0554C699.512 53.492 697.985 46.6856 697.985 38.6364C697.985 30.5398 699.548 23.7216 702.673 18.1818C705.798 12.6184 710.012 8.41619 715.315 5.57528C720.618 2.7107 726.537 1.27841 733.071 1.27841C737.663 1.27841 741.889 1.90577 745.748 3.16051C749.607 4.41524 752.993 6.25 755.904 8.66477C758.816 11.0559 761.16 14.0033 762.936 17.5071C764.711 21.0109 765.788 25.0237 766.167 29.5455ZM773.136 18.1818V2.27273H836.347V18.1818H814.472V75H795.011V18.1818H773.136ZM906.703 2.27273V75H890.226L863.948 36.7898H863.522V75H843.777V2.27273H860.539L886.391 40.3409H886.959V2.27273H906.703Z" fill="black"/>
<path d="M1.6875 75H-0.3125V77H1.6875V75ZM1.6875 2.27272V0.272724H-0.3125V2.27272H1.6875ZM47.2486 5.22017L46.3753 7.01942L47.2486 5.22017ZM56.6946 13.7074L58.4028 12.6671L56.6946 13.7074ZM56.5881 40.1633L54.9104 39.0745L54.9053 39.0824L56.5881 40.1633ZM46.8935 48.2599L46.0918 46.4276L46.088 46.4293L46.8935 48.2599ZM13.6193 50.9943H11.6193V52.9943H13.6193V50.9943ZM13.6193 35.6534V33.6534H11.6193V35.6534H13.6193ZM34.3224 34.8011L34.9795 36.6901L34.9873 36.6874L34.9951 36.6846L34.3224 34.8011ZM38.1222 31.9957L36.4865 30.8447L36.4794 30.855L36.4723 30.8653L38.1222 31.9957ZM38.1222 21.9105L36.4535 23.013L36.4649 23.0303L36.4767 23.0474L38.1222 21.9105ZM34.3224 18.9986L33.5936 20.8611L33.6098 20.8674L33.6261 20.8734L34.3224 18.9986ZM21.4318 18.0398V16.0398H19.4318V18.0398H21.4318ZM21.4318 75V77H23.4318V75H21.4318ZM44.3011 41.6193L46.0575 40.6627L45.4892 39.6193H44.3011V41.6193ZM62.483 75V77H65.8498L64.2393 74.0433L62.483 75ZM41.0341 75L39.2683 75.9392L39.8326 77H41.0341V75ZM23.2784 41.6193V39.6193H19.9492L21.5127 42.5585L23.2784 41.6193ZM3.6875 75V2.27272H-0.3125V75H3.6875ZM1.6875 4.27272H33.0795V0.272724H1.6875V4.27272ZM33.0795 4.27272C38.2344 4.27272 42.6481 5.21034 46.3753 7.01942L48.1219 3.42092C43.7524 1.30007 38.7202 0.272724 33.0795 0.272724V4.27272ZM46.3753 7.01942C50.093 8.82393 52.9454 11.3961 54.9864 14.7476L58.4028 12.6671C55.9457 8.6323 52.5008 5.54633 48.1219 3.42092L46.3753 7.01942ZM54.9864 14.7476C57.0105 18.0714 58.0682 22.123 58.0682 26.9886H62.0682C62.0682 21.5322 60.8768 16.7297 58.4028 12.6671L54.9864 14.7476ZM58.0682 26.9886C58.0682 31.8969 56.9776 35.8895 54.9104 39.0745L58.2657 41.2522C60.8387 37.2876 62.0682 32.497 62.0682 26.9886H58.0682ZM54.9053 39.0824C52.8373 42.3017 49.9238 44.7511 46.0918 46.4276L47.6951 50.0923C52.1964 48.1229 55.746 45.1747 58.2708 41.2443L54.9053 39.0824ZM46.088 46.4293C42.249 48.1185 37.6923 48.9943 32.3693 48.9943V52.9943C38.1258 52.9943 43.252 52.0472 47.6989 50.0906L46.088 46.4293ZM32.3693 48.9943H13.6193V52.9943H32.3693V48.9943ZM15.6193 50.9943V35.6534H11.6193V50.9943H15.6193ZM13.6193 37.6534H28.392V33.6534H13.6193V37.6534ZM28.392 37.6534C30.8643 37.6534 33.0764 37.3521 34.9795 36.6901L33.6654 32.9121C32.3015 33.3866 30.5599 33.6534 28.392 33.6534V37.6534ZM34.9951 36.6846C36.9932 35.971 38.6263 34.7984 39.772 33.1262L36.4723 30.8653C35.8661 31.7499 34.9661 32.4476 33.6498 32.9177L34.9951 36.6846ZM39.7578 33.1467C40.9595 31.439 41.4716 29.3308 41.4716 26.9886H37.4716C37.4716 28.7658 37.0841 29.9957 36.4865 30.8447L39.7578 33.1467ZM41.4716 26.9886C41.4716 24.6261 40.9611 22.501 39.7676 20.7736L36.4767 23.0474C37.0825 23.9242 37.4716 25.1845 37.4716 26.9886H41.4716ZM39.7908 20.808C38.6548 19.0885 37.0269 17.8696 35.0188 17.1237L33.6261 20.8734C34.9324 21.3586 35.8377 22.081 36.4535 23.013L39.7908 20.808ZM35.0512 17.1361C33.1239 16.3819 30.8855 16.0398 28.392 16.0398V20.0398C30.5388 20.0398 32.254 20.3368 33.5936 20.8611L35.0512 17.1361ZM28.392 16.0398H21.4318V20.0398H28.392V16.0398ZM19.4318 18.0398V75H23.4318V18.0398H19.4318ZM21.4318 73H1.6875V77H21.4318V73ZM42.5448 42.576L60.7266 75.9567L64.2393 74.0433L46.0575 40.6627L42.5448 42.576ZM62.483 73H41.0341V77H62.483V73ZM42.7998 74.0608L25.0442 40.6801L21.5127 42.5585L39.2683 75.9392L42.7998 74.0608ZM23.2784 43.6193H44.3011V39.6193H23.2784V43.6193ZM134.216 59.1264L135.955 60.1147L135.956 60.1115L134.216 59.1264ZM121.467 71.733L122.405 73.4994L122.411 73.4961L121.467 71.733ZM85.6009 71.6974L84.6475 73.4556L84.6568 73.4606L85.6009 71.6974ZM72.8878 59.0554L71.144 60.0349L71.149 60.0437L72.8878 59.0554ZM72.8878 18.1818L71.1472 17.1967L71.1458 17.1992L72.8878 18.1818ZM85.6009 5.57528L86.542 7.33999L86.5449 7.33847L85.6009 5.57528ZM121.467 5.57528L120.523 7.33848L120.529 7.34171L121.467 5.57528ZM134.216 18.1818L132.475 19.1669L132.477 19.1701L134.216 18.1818ZM116.886 27.6278L115.016 28.3349L115.019 28.3438L115.022 28.3527L116.886 27.6278ZM111.808 20.8097L110.659 22.4465L110.669 22.4534L110.679 22.4603L111.808 20.8097ZM95.2955 20.8097L96.433 22.4547L96.4366 22.4522L95.2955 20.8097ZM90.2173 27.6278L88.3514 26.9079L88.3484 26.9158L90.2173 27.6278ZM90.2173 49.6804L88.3465 50.3875L88.3499 50.3964L88.3533 50.4053L90.2173 49.6804ZM95.2955 56.4986L94.1462 58.1354L94.1561 58.1424L94.1661 58.1492L95.2955 56.4986ZM111.808 56.4986L112.946 58.1436L112.949 58.1411L111.808 56.4986ZM116.886 49.6804L115.02 48.9605L115.017 48.9684L116.886 49.6804ZM136.939 38.6364C136.939 46.4781 135.414 52.9483 132.475 58.1413L135.956 60.1115C139.315 54.1777 140.939 46.9878 140.939 38.6364H136.939ZM132.477 58.1381C129.505 63.367 125.524 67.2924 120.523 69.9698L122.411 73.4961C128.111 70.4443 132.629 65.9654 135.955 60.1147L132.477 58.1381ZM120.529 69.9665C115.492 72.641 109.853 73.9943 103.57 73.9943V77.9943C110.449 77.9943 116.742 76.5067 122.405 73.4994L120.529 69.9665ZM103.57 73.9943C97.2391 73.9943 91.5787 72.6293 86.5449 69.9342L84.6568 73.4606C90.3238 76.4947 96.6425 77.9943 103.57 77.9943V73.9943ZM86.5542 69.9393C81.5734 67.2386 77.6005 63.2995 74.6265 58.0671L71.149 60.0437C74.4724 65.8909 78.9749 70.3798 84.6475 73.4556L86.5542 69.9393ZM74.6315 58.0759C71.713 52.8801 70.2003 46.4307 70.2003 38.6364H66.2003C66.2003 46.9405 67.8126 54.1039 71.144 60.0349L74.6315 58.0759ZM70.2003 38.6364C70.2003 30.7919 71.714 24.3332 74.6297 19.1645L71.1458 17.1992C67.8115 23.11 66.2003 30.2876 66.2003 38.6364H70.2003ZM74.6284 19.1669C77.6015 13.9136 81.5705 9.99147 86.542 7.33999L84.6597 3.81058C78.9778 6.84091 74.4714 11.3232 71.1472 17.1967L74.6284 19.1669ZM86.5449 7.33847C91.5787 4.64339 97.2391 3.27841 103.57 3.27841V-0.721594C96.6425 -0.721594 90.3238 0.778008 84.6568 3.81209L86.5449 7.33847ZM103.57 3.27841C109.85 3.27841 115.487 4.64227 120.523 7.33847L122.411 3.81209C116.746 0.779123 110.452 -0.721594 103.57 -0.721594V3.27841ZM120.529 7.34171C125.524 9.99386 129.503 13.9158 132.475 19.1669L135.956 17.1967C132.631 11.3209 128.111 6.83852 122.405 3.80885L120.529 7.34171ZM132.477 19.1701C135.414 24.3376 136.939 30.7942 136.939 38.6364H140.939C140.939 30.2853 139.315 23.1056 135.955 17.1935L132.477 19.1701ZM120.626 38.6364C120.626 34.1161 120.026 30.184 118.75 26.9029L115.022 28.3527C116.066 31.0376 116.626 34.4445 116.626 38.6364H120.626ZM118.757 26.9208C117.503 23.6016 115.582 20.9683 112.938 19.159L110.679 22.4603C112.533 23.7287 113.997 25.6408 115.016 28.3349L118.757 26.9208ZM112.958 19.1728C110.332 17.3296 107.163 16.4659 103.57 16.4659V20.4659C106.51 20.4659 108.833 21.1647 110.659 22.4465L112.958 19.1728ZM103.57 16.4659C99.975 16.4659 96.7989 17.3299 94.1543 19.1671L96.4366 22.4522C98.2901 21.1644 100.63 20.4659 103.57 20.4659V16.4659ZM94.1579 19.1646C91.5435 20.9725 89.6278 23.5998 88.3514 26.9079L92.0833 28.3478C93.127 25.6426 94.5967 23.7245 96.433 22.4547L94.1579 19.1646ZM88.3484 26.9158C87.1001 30.1925 86.5128 34.1198 86.5128 38.6364H90.5128C90.5128 34.4408 91.0618 31.0291 92.0863 28.3398L88.3484 26.9158ZM86.5128 38.6364C86.5128 43.1537 87.1003 47.0903 88.3465 50.3875L92.0882 48.9733C91.0616 46.2572 90.5128 42.8312 90.5128 38.6364H86.5128ZM88.3533 50.4053C89.6306 53.6896 91.544 56.3083 94.1462 58.1354L96.4447 54.8618C94.5962 53.5638 93.1242 51.6371 92.0813 48.9555L88.3533 50.4053ZM94.1661 58.1492C96.8093 59.9577 99.9811 60.8068 103.57 60.8068V56.8068C100.624 56.8068 98.2797 56.1171 96.4248 54.848L94.1661 58.1492ZM103.57 60.8068C107.157 60.8068 110.322 59.958 112.946 58.1436L110.671 54.8536C108.844 56.1168 106.516 56.8068 103.57 56.8068V60.8068ZM112.949 58.1411C115.581 56.3126 117.5 53.6877 118.755 50.3924L115.017 48.9684C114 51.639 112.533 53.5596 110.667 54.8561L112.949 58.1411ZM118.752 50.4003C120.026 47.0988 120.626 43.1574 120.626 38.6364H116.626C116.626 42.8274 116.067 46.2487 115.02 48.9605L118.752 50.4003ZM162.376 75V77H163.862L164.291 75.578L162.376 75ZM141.07 75L139.17 74.3731L138.303 77H141.07V75ZM165.075 2.27272V0.272724H163.629L163.176 1.64584L165.075 2.27272ZM192.064 2.27272L193.963 1.64584L193.51 0.272724H192.064V2.27272ZM216.07 75V77H218.836L217.969 74.3731L216.07 75ZM194.763 75L192.848 75.578L193.277 77H194.763V75ZM178.854 22.3011L180.768 21.7231L180.339 20.3011H178.854V22.3011ZM178.286 22.3011V20.3011H176.8L176.371 21.7231L178.286 22.3011ZM158.399 46.3068V44.3068H156.399V46.3068H158.399ZM198.456 46.3068H200.456V44.3068H198.456V46.3068ZM198.456 61.0795V63.0795H200.456V61.0795H198.456ZM158.399 61.0795H156.399V63.0795H158.399V61.0795ZM162.376 73H141.07V77H162.376V73ZM142.969 75.6269L166.975 2.89961L163.176 1.64584L139.17 74.3731L142.969 75.6269ZM165.075 4.27272H192.064V0.272724H165.075V4.27272ZM190.165 2.89961L214.17 75.6269L217.969 74.3731L193.963 1.64584L190.165 2.89961ZM216.07 73H194.763V77H216.07V73ZM196.677 74.422L180.768 21.7231L176.939 22.8791L192.848 75.578L196.677 74.422ZM178.854 20.3011H178.286V24.3011H178.854V20.3011ZM176.371 21.7231L160.462 74.422L164.291 75.578L180.2 22.8791L176.371 21.7231ZM158.399 48.3068H198.456V44.3068H158.399V48.3068ZM196.456 46.3068V61.0795H200.456V46.3068H196.456ZM198.456 59.0795H158.399V63.0795H198.456V59.0795ZM160.399 61.0795V46.3068H156.399V61.0795H160.399ZM223.074 75H221.074V77H223.074V75ZM223.074 2.27272V0.272724H221.074V2.27272H223.074ZM270.162 6.64062L269.219 8.40429L269.228 8.40913L270.162 6.64062ZM282.804 19.1406L281.047 20.0957L281.052 20.1048L282.804 19.1406ZM282.84 58.1676L284.595 59.1259L284.597 59.1226L282.84 58.1676ZM270.269 70.6676L271.209 72.4328L271.215 72.4295L270.269 70.6676ZM242.819 58.2386H240.819V60.2386H242.819V58.2386ZM259.544 56.4986L258.718 54.6773L258.712 54.6802L259.544 56.4986ZM265.368 50.4972L263.562 49.639L263.556 49.6514L265.368 50.4972ZM265.333 26.7756L263.526 27.6337L263.532 27.6459L265.333 26.7756ZM259.367 20.7741L258.553 22.6011L258.559 22.6038L259.367 20.7741ZM242.819 19.0341V17.0341H240.819V19.0341H242.819ZM251.057 73H223.074V77H251.057V73ZM225.074 75V2.27272H221.074V75H225.074ZM223.074 4.27272H250.773V0.272724H223.074V4.27272ZM250.773 4.27272C257.994 4.27272 264.12 5.67709 269.219 8.40427L271.105 4.87698C265.315 1.78029 258.514 0.272724 250.773 0.272724V4.27272ZM269.228 8.40913C274.348 11.1129 278.276 14.9962 281.047 20.0957L284.562 18.1856C281.414 12.3949 276.914 7.94488 271.096 4.87212L269.228 8.40913ZM281.052 20.1048C283.84 25.1715 285.279 31.3228 285.279 38.6364H289.279C289.279 30.7984 287.735 23.9526 284.557 18.1765L281.052 20.1048ZM285.279 38.6364C285.279 45.952 283.851 52.119 281.083 57.2126L284.597 59.1226C287.747 53.326 289.279 46.4723 289.279 38.6364H285.279ZM281.084 57.2094C278.31 62.2914 274.401 66.1782 269.322 68.9057L271.215 72.4295C276.98 69.3332 281.451 64.8867 284.595 59.1259L281.084 57.2094ZM269.328 68.9025C264.25 71.6082 258.182 73 251.057 73V77C258.706 77 265.445 75.5035 271.209 72.4327L269.328 68.9025ZM242.819 60.2386H250.347V56.2386H242.819V60.2386ZM250.347 60.2386C254.152 60.2386 257.518 59.6262 260.377 58.317L258.712 54.6802C256.504 55.691 253.739 56.2386 250.347 56.2386V60.2386ZM260.371 58.3199C263.413 56.9394 265.678 54.5623 267.181 51.3429L263.556 49.6514C262.407 52.1138 260.789 53.7376 258.718 54.6773L260.371 58.3199ZM267.175 51.3553C268.706 48.1314 269.392 43.8387 269.392 38.6364H265.392C265.392 43.5666 264.729 47.1811 263.562 49.639L267.175 51.3553ZM269.392 38.6364C269.392 33.4309 268.694 29.1332 267.133 25.9052L263.532 27.6459C264.718 30.0997 265.392 33.7092 265.392 38.6364H269.392ZM267.139 25.9174C265.605 22.6877 263.284 20.3171 260.175 18.9445L258.559 22.6038C260.706 23.5513 262.361 25.1816 263.526 27.6337L267.139 25.9174ZM260.181 18.9472C257.251 17.6421 253.759 17.0341 249.779 17.0341V21.0341C253.374 21.0341 256.274 21.5861 258.553 22.6011L260.181 18.9472ZM249.779 17.0341H242.819V21.0341H249.779V17.0341ZM240.819 19.0341V58.2386H244.819V19.0341H240.819ZM314.347 18.1818H312.347V20.1818H314.347V18.1818ZM314.347 2.27272V0.272724H312.347V2.27272H314.347ZM377.558 2.27272H379.558V0.272724H377.558V2.27272ZM377.558 18.1818V20.1818H379.558V18.1818H377.558ZM355.683 18.1818V16.1818H353.683V18.1818H355.683ZM355.683 75V77H357.683V75H355.683ZM336.222 75H334.222V77H336.222V75ZM336.222 18.1818H338.222V16.1818H336.222V18.1818ZM316.347 18.1818V2.27272H312.347V18.1818H316.347ZM314.347 4.27272H377.558V0.272724H314.347V4.27272ZM375.558 2.27272V18.1818H379.558V2.27272H375.558ZM377.558 16.1818H355.683V20.1818H377.558V16.1818ZM353.683 18.1818V75H357.683V18.1818H353.683ZM355.683 73H336.222V77H355.683V73ZM338.222 75V18.1818H334.222V75H338.222ZM336.222 16.1818H314.347V20.1818H336.222V16.1818ZM447.302 59.1264L449.041 60.1147L449.042 60.1115L447.302 59.1264ZM434.553 71.733L435.491 73.4994L435.497 73.4961L434.553 71.733ZM398.687 71.6974L397.733 73.4556L397.743 73.4606L398.687 71.6974ZM385.974 59.0554L384.23 60.0349L384.235 60.0437L385.974 59.0554ZM385.974 18.1818L384.233 17.1967L384.232 17.1992L385.974 18.1818ZM398.687 5.57528L399.628 7.33999L399.631 7.33847L398.687 5.57528ZM434.553 5.57528L433.609 7.33848L433.615 7.34171L434.553 5.57528ZM447.302 18.1818L445.561 19.1669L445.563 19.1701L447.302 18.1818ZM429.972 27.6278L428.101 28.3349L428.105 28.3438L428.108 28.3527L429.972 27.6278ZM424.894 20.8097L423.745 22.4465L423.755 22.4534L423.765 22.4603L424.894 20.8097ZM408.381 20.8097L409.519 22.4547L409.523 22.4522L408.381 20.8097ZM403.303 27.6278L401.437 26.9079L401.434 26.9158L403.303 27.6278ZM403.303 49.6804L401.432 50.3875L401.436 50.3964L401.439 50.4053L403.303 49.6804ZM408.381 56.4986L407.232 58.1354L407.242 58.1424L407.252 58.1492L408.381 56.4986ZM424.894 56.4986L426.032 58.1436L426.035 58.1411L424.894 56.4986ZM429.972 49.6804L428.106 48.9605L428.103 48.9684L429.972 49.6804ZM450.025 38.6364C450.025 46.4781 448.5 52.9483 445.561 58.1413L449.042 60.1115C452.401 54.1777 454.025 46.9878 454.025 38.6364H450.025ZM445.563 58.1381C442.591 63.367 438.61 67.2924 433.609 69.9698L435.497 73.4961C441.197 70.4443 445.715 65.9654 449.041 60.1147L445.563 58.1381ZM433.615 69.9665C428.578 72.641 422.939 73.9943 416.656 73.9943V77.9943C423.535 77.9943 429.827 76.5067 435.491 73.4994L433.615 69.9665ZM416.656 73.9943C410.325 73.9943 404.665 72.6293 399.631 69.9342L397.743 73.4606C403.41 76.4947 409.728 77.9943 416.656 77.9943V73.9943ZM399.64 69.9393C394.659 67.2386 390.686 63.2995 387.712 58.0671L384.235 60.0437C387.558 65.8909 392.061 70.3798 397.733 73.4556L399.64 69.9393ZM387.717 58.0759C384.799 52.8801 383.286 46.4307 383.286 38.6364H379.286C379.286 46.9405 380.899 54.1039 384.23 60.0349L387.717 58.0759ZM383.286 38.6364C383.286 30.7919 384.8 24.3332 387.716 19.1645L384.232 17.1992C380.897 23.11 379.286 30.2876 379.286 38.6364H383.286ZM387.714 19.1669C390.687 13.9136 394.656 9.99147 399.628 7.33999L397.746 3.81058C392.064 6.84091 387.557 11.3232 384.233 17.1967L387.714 19.1669ZM399.631 7.33847C404.665 4.64339 410.325 3.27841 416.656 3.27841V-0.721594C409.728 -0.721594 403.41 0.778008 397.743 3.81209L399.631 7.33847ZM416.656 3.27841C422.936 3.27841 428.573 4.64227 433.609 7.33847L435.497 3.81209C429.832 0.779123 423.538 -0.721594 416.656 -0.721594V3.27841ZM433.615 7.34171C438.61 9.99386 442.589 13.9158 445.561 19.1669L449.042 17.1967C445.717 11.3209 441.197 6.83852 435.491 3.80885L433.615 7.34171ZM445.563 19.1701C448.5 24.3376 450.025 30.7942 450.025 38.6364H454.025C454.025 30.2853 452.401 23.1056 449.041 17.1935L445.563 19.1701ZM433.712 38.6364C433.712 34.1161 433.112 30.184 431.836 26.9029L428.108 28.3527C429.152 31.0376 429.712 34.4445 429.712 38.6364H433.712ZM431.843 26.9208C430.589 23.6016 428.668 20.9683 426.024 19.159L423.765 22.4603C425.619 23.7287 427.083 25.6408 428.101 28.3349L431.843 26.9208ZM426.043 19.1728C423.418 17.3296 420.249 16.4659 416.656 16.4659V20.4659C419.596 20.4659 421.919 21.1647 423.745 22.4465L426.043 19.1728ZM416.656 16.4659C413.061 16.4659 409.885 17.3299 407.24 19.1671L409.523 22.4522C411.376 21.1644 413.716 20.4659 416.656 20.4659V16.4659ZM407.244 19.1646C404.629 20.9725 402.714 23.5998 401.437 26.9079L405.169 28.3478C406.213 25.6426 407.683 23.7245 409.519 22.4547L407.244 19.1646ZM401.434 26.9158C400.186 30.1925 399.599 34.1198 399.599 38.6364H403.599C403.599 34.4408 404.148 31.0291 405.172 28.3398L401.434 26.9158ZM399.599 38.6364C399.599 43.1537 400.186 47.0903 401.432 50.3875L405.174 48.9733C404.148 46.2572 403.599 42.8312 403.599 38.6364H399.599ZM401.439 50.4053C402.716 53.6896 404.63 56.3083 407.232 58.1354L409.531 54.8618C407.682 53.5638 406.21 51.6371 405.167 48.9555L401.439 50.4053ZM407.252 58.1492C409.895 59.9577 413.067 60.8068 416.656 60.8068V56.8068C413.71 56.8068 411.366 56.1171 409.511 54.848L407.252 58.1492ZM416.656 60.8068C420.243 60.8068 423.408 59.958 426.032 58.1436L423.757 54.8536C421.93 56.1168 419.602 56.8068 416.656 56.8068V60.8068ZM426.035 58.1411C428.667 56.3126 430.586 53.6877 431.841 50.3924L428.103 48.9684C427.086 51.639 425.619 53.5596 423.753 54.8561L426.035 58.1411ZM431.838 50.4003C433.112 47.0988 433.712 43.1574 433.712 38.6364H429.712C429.712 42.8274 429.153 46.2487 428.106 48.9605L431.838 50.4003ZM502.247 2.27272L503.989 1.29054L503.415 0.272724H502.247V2.27272ZM514.179 23.4375L512.436 24.4197L513.01 25.4375H514.179V23.4375ZM514.747 23.4375V25.4375H515.908L516.484 24.4285L514.747 23.4375ZM526.821 2.27272V0.272724H525.659L525.083 1.2817L526.821 2.27272ZM548.838 2.27272L550.554 3.29876L552.363 0.272724H548.838V2.27272ZM527.105 38.6364L525.388 37.6103L524.763 38.6564L525.406 39.6916L527.105 38.6364ZM549.69 75V77H553.287L551.389 73.9448L549.69 75ZM527.105 75L525.369 75.9935L525.945 77H527.105V75ZM514.747 53.4091L516.483 52.4156L515.906 51.4091H514.747V53.4091ZM514.179 53.4091V51.4091H513.019L512.443 52.4156L514.179 53.4091ZM501.821 75V77H502.98L503.556 75.9935L501.821 75ZM479.377 75L477.673 73.9544L475.805 77H479.377V75ZM501.679 38.6364L503.384 39.682L504.015 38.6531L503.398 37.6153L501.679 38.6364ZM480.088 2.27272V0.272724H476.574L478.368 3.2938L480.088 2.27272ZM500.505 3.25491L512.436 24.4197L515.921 22.4553L503.989 1.29054L500.505 3.25491ZM514.179 25.4375H514.747V21.4375H514.179V25.4375ZM516.484 24.4285L528.558 3.26375L525.083 1.2817L513.01 22.4465L516.484 24.4285ZM526.821 4.27272H548.838V0.272724H526.821V4.27272ZM547.121 1.24669L525.388 37.6103L528.822 39.6624L550.554 3.29876L547.121 1.24669ZM525.406 39.6916L547.991 76.0552L551.389 73.9448L528.804 37.5811L525.406 39.6916ZM549.69 73H527.105V77H549.69V73ZM528.841 74.0065L516.483 52.4156L513.011 54.4026L525.369 75.9935L528.841 74.0065ZM514.747 51.4091H514.179V55.4091H514.747V51.4091ZM512.443 52.4156L500.085 74.0065L503.556 75.9935L515.914 54.4026L512.443 52.4156ZM501.821 73H479.377V77H501.821V73ZM481.082 76.0456L503.384 39.682L499.974 37.5908L477.673 73.9544L481.082 76.0456ZM503.398 37.6153L481.807 1.25165L478.368 3.2938L499.959 39.6574L503.398 37.6153ZM480.088 4.27272H502.247V0.272724H480.088V4.27272ZM555.363 18.1818H553.363V20.1818H555.363V18.1818ZM555.363 2.27272V0.272724H553.363V2.27272H555.363ZM618.573 2.27272H620.573V0.272724H618.573V2.27272ZM618.573 18.1818V20.1818H620.573V18.1818H618.573ZM596.698 18.1818V16.1818H594.698V18.1818H596.698ZM596.698 75V77H598.698V75H596.698ZM577.238 75H575.238V77H577.238V75ZM577.238 18.1818H579.238V16.1818H577.238V18.1818ZM557.363 18.1818V2.27272H553.363V18.1818H557.363ZM555.363 4.27272H618.573V0.272724H555.363V4.27272ZM616.573 2.27272V18.1818H620.573V2.27272H616.573ZM618.573 16.1818H596.698V20.1818H618.573V16.1818ZM594.698 18.1818V75H598.698V18.1818H594.698ZM596.698 73H577.238V77H596.698V73ZM579.238 75V18.1818H575.238V75H579.238ZM577.238 16.1818H555.363V20.1818H577.238V16.1818ZM688.93 2.27272H690.93V0.272724H688.93V2.27272ZM688.93 75V77H690.93V75H688.93ZM672.453 75L670.805 76.1333L671.401 77H672.453V75ZM646.174 36.7898L647.822 35.6565L647.226 34.7898H646.174V36.7898ZM645.748 36.7898V34.7898H643.748V36.7898H645.748ZM645.748 75V77H647.748V75H645.748ZM626.004 75H624.004V77H626.004V75ZM626.004 2.27272V0.272724H624.004V2.27272H626.004ZM642.765 2.27272L644.42 1.14912L643.825 0.272724H642.765V2.27272ZM668.618 40.3409L666.963 41.4645L667.558 42.3409H668.618V40.3409ZM669.186 40.3409V42.3409H671.186V40.3409H669.186ZM669.186 2.27272V0.272724H667.186V2.27272H669.186ZM686.93 2.27272V75H690.93V2.27272H686.93ZM688.93 73H672.453V77H688.93V73ZM674.101 73.8667L647.822 35.6565L644.526 37.9231L670.805 76.1333L674.101 73.8667ZM646.174 34.7898H645.748V38.7898H646.174V34.7898ZM643.748 36.7898V75H647.748V36.7898H643.748ZM645.748 73H626.004V77H645.748V73ZM628.004 75V2.27272H624.004V75H628.004ZM626.004 4.27272H642.765V0.272724H626.004V4.27272ZM641.111 3.39633L666.963 41.4645L670.272 39.2173L644.42 1.14912L641.111 3.39633ZM668.618 42.3409H669.186V38.3409H668.618V42.3409ZM671.186 40.3409V2.27272H667.186V40.3409H671.186ZM669.186 4.27272H688.93V0.272724H669.186V4.27272ZM766.167 29.5455V31.5455H768.342L768.16 29.3785L766.167 29.5455ZM746.139 29.5455L744.146 29.7163L744.303 31.5455H746.139V29.5455ZM745.003 25.0355L743.171 25.8388L743.177 25.8522L743.183 25.8655L745.003 25.0355ZM742.517 21.5554L741.136 23.0021L741.153 23.0181L741.17 23.0338L742.517 21.5554ZM738.717 19.2827L738.031 21.1614L738.044 21.1662L738.058 21.1709L738.717 19.2827ZM725.223 20.8807L724.075 19.243L724.067 19.2486L725.223 20.8807ZM720.038 27.8054L718.177 27.0727L718.172 27.0855L720.038 27.8054ZM720.073 49.8224L718.213 50.5551L718.216 50.564L718.22 50.5728L720.073 49.8224ZM725.294 56.5696L724.184 58.2337L724.19 58.2377L724.196 58.2417L725.294 56.5696ZM738.397 58.1321L738.992 60.0416L739.006 60.0372L739.02 60.0326L738.397 58.1321ZM742.162 56.108L743.432 57.6528V57.6528L742.162 56.108ZM744.754 52.9474L742.999 51.9874L742.993 51.9992L744.754 52.9474ZM746.139 48.7216L746.153 46.7216L744.421 46.7094L744.161 48.422L746.139 48.7216ZM766.167 48.8636L768.161 49.017L768.326 46.8789L766.181 46.8637L766.167 48.8636ZM763.575 58.2741L765.385 59.1251L765.387 59.1199L763.575 58.2741ZM757.218 67.081L758.62 68.5075L758.62 68.5074L757.218 67.081ZM747.098 73.544L746.345 71.6909L747.098 73.544ZM715.102 71.6974L714.148 73.4553L714.151 73.4571L715.102 71.6974ZM702.566 59.0554L700.813 60.0178L700.816 60.0235L702.566 59.0554ZM702.673 18.1818L704.415 19.1645L704.417 19.1613L702.673 18.1818ZM715.315 5.57528L716.259 7.33825L716.266 7.33496L715.315 5.57528ZM745.748 3.16051L746.367 1.25852L745.748 3.16051ZM755.904 8.66477L754.628 10.2043L754.635 10.2104L755.904 8.66477ZM762.936 17.5071L761.152 18.4112V18.4112L762.936 17.5071ZM766.167 27.5455H746.139V31.5455H766.167V27.5455ZM748.132 29.3746C747.972 27.5169 747.543 25.7868 746.822 24.2055L743.183 25.8655C743.693 26.9831 744.021 28.2596 744.146 29.7163L748.132 29.3746ZM746.834 24.2322C746.132 22.6322 745.141 21.2406 743.864 20.077L741.17 23.0338C742.023 23.8115 742.689 24.74 743.171 25.8388L746.834 24.2322ZM743.898 20.1087C742.63 18.899 741.111 18.0001 739.376 17.3945L738.058 21.1709C739.306 21.6069 740.32 22.2231 741.136 23.0021L743.898 20.1087ZM739.403 17.404C737.654 16.7654 735.723 16.4659 733.639 16.4659V20.4659C735.343 20.4659 736.797 20.7109 738.031 21.1614L739.403 17.404ZM733.639 16.4659C729.99 16.4659 726.765 17.3569 724.075 19.243L726.371 22.5184C728.273 21.1848 730.659 20.4659 733.639 20.4659V16.4659ZM724.067 19.2486C721.428 21.1176 719.48 23.7635 718.177 27.0727L721.899 28.5381C722.964 25.8341 724.472 23.8635 726.379 22.5127L724.067 19.2486ZM718.172 27.0855C716.901 30.3804 716.298 34.248 716.298 38.6364H720.298C720.298 34.5967 720.855 31.2437 721.904 28.5253L718.172 27.0855ZM716.298 38.6364C716.298 43.2497 716.909 47.2451 718.213 50.5551L721.934 49.0898C720.87 46.3865 720.298 42.9246 720.298 38.6364H716.298ZM718.22 50.5728C719.55 53.8604 721.521 56.4583 724.184 58.2337L726.403 54.9055C724.521 53.6507 723.012 51.7504 721.927 49.0721L718.22 50.5728ZM724.196 58.2417C726.849 59.9825 729.981 60.8068 733.497 60.8068V56.8068C730.621 56.8068 728.284 56.1397 726.391 54.8975L724.196 58.2417ZM733.497 60.8068C735.481 60.8068 737.321 60.5622 738.992 60.0416L737.803 56.2226C736.586 56.6016 735.158 56.8068 733.497 56.8068V60.8068ZM739.02 60.0326C740.676 59.4896 742.156 58.7017 743.432 57.6528L740.891 54.5631C740.036 55.2661 739.007 55.8276 737.774 56.2316L739.02 60.0326ZM743.432 57.6528C744.701 56.6094 745.73 55.3524 746.515 53.8956L742.993 51.9992C742.452 53.0046 741.753 53.8546 740.891 54.5631L743.432 57.6528ZM746.508 53.9075C747.319 52.4269 747.848 50.791 748.116 49.0212L744.161 48.422C743.956 49.7772 743.562 50.9585 742.999 51.9874L746.508 53.9075ZM746.125 50.7215L766.153 50.8636L766.181 46.8637L746.153 46.7216L746.125 50.7215ZM764.173 48.7102C763.957 51.5164 763.167 54.4196 761.763 57.4284L765.387 59.1199C766.966 55.7366 767.904 52.3661 768.161 49.017L764.173 48.7102ZM761.765 57.4232C760.384 60.3609 758.41 63.1055 755.817 65.6545L758.62 68.5074C761.519 65.6587 763.783 62.5321 765.385 59.1251L761.765 57.4232ZM755.817 65.6544C753.305 68.1227 750.161 70.1422 746.345 71.6909L747.85 75.3972C752.084 73.6788 755.687 71.3896 758.62 68.5075L755.817 65.6544ZM746.345 71.6909C742.607 73.2082 738.196 73.9943 733.071 73.9943V77.9943C738.599 77.9943 743.539 77.1469 747.85 75.3972L746.345 71.6909ZM733.071 73.9943C726.69 73.9943 721.033 72.6282 716.052 69.9378L714.151 73.4571C719.777 76.4959 726.099 77.9943 733.071 77.9943V73.9943ZM716.056 69.9395C711.132 67.2677 707.221 63.3374 704.316 58.0873L700.816 60.0235C704.067 65.9003 708.513 70.398 714.148 73.4553L716.056 69.9395ZM704.32 58.093C701.465 52.8933 699.985 46.4375 699.985 38.6364H695.985C695.985 46.9337 697.56 54.0906 700.813 60.0178L704.32 58.093ZM699.985 38.6364C699.985 30.7919 701.499 24.3332 704.415 19.1645L700.931 17.1992C697.597 23.11 695.985 30.2876 695.985 38.6364H699.985ZM704.417 19.1613C707.367 13.9087 711.313 9.98829 716.259 7.33824L714.371 3.81232C708.711 6.84409 704.229 11.3281 700.929 17.2024L704.417 19.1613ZM716.266 7.33496C721.252 4.64118 726.84 3.27841 733.071 3.27841V-0.721594C726.233 -0.721594 719.984 0.78022 714.364 3.8156L716.266 7.33496ZM733.071 3.27841C737.481 3.27841 741.495 3.88063 745.13 5.06249L746.367 1.25852C742.284 -0.0690804 737.846 -0.721594 733.071 -0.721594V3.27841ZM745.13 5.06249C748.766 6.2448 751.924 7.96226 754.628 10.2043L757.181 7.12525C754.061 4.53774 750.448 2.58568 746.367 1.25852L745.13 5.06249ZM754.635 10.2104C757.324 12.4182 759.496 15.1439 761.152 18.4112L764.72 16.603C762.824 12.8628 760.309 9.69357 757.174 7.1191L754.635 10.2104ZM761.152 18.4112C762.794 21.6522 763.814 25.4081 764.174 29.7124L768.16 29.3785C767.763 24.6393 766.628 20.3696 764.72 16.603L761.152 18.4112ZM773.136 18.1818H771.136V20.1818H773.136V18.1818ZM773.136 2.27272V0.272724H771.136V2.27272H773.136ZM836.347 2.27272H838.347V0.272724H836.347V2.27272ZM836.347 18.1818V20.1818H838.347V18.1818H836.347ZM814.472 18.1818V16.1818H812.472V18.1818H814.472ZM814.472 75V77H816.472V75H814.472ZM795.011 75H793.011V77H795.011V75ZM795.011 18.1818H797.011V16.1818H795.011V18.1818ZM775.136 18.1818V2.27272H771.136V18.1818H775.136ZM773.136 4.27272H836.347V0.272724H773.136V4.27272ZM834.347 2.27272V18.1818H838.347V2.27272H834.347ZM836.347 16.1818H814.472V20.1818H836.347V16.1818ZM812.472 18.1818V75H816.472V18.1818H812.472ZM814.472 73H795.011V77H814.472V73ZM797.011 75V18.1818H793.011V75H797.011ZM795.011 16.1818H773.136V20.1818H795.011V16.1818ZM906.703 2.27272H908.703V0.272724H906.703V2.27272ZM906.703 75V77H908.703V75H906.703ZM890.226 75L888.578 76.1333L889.174 77H890.226V75ZM863.948 36.7898L865.596 35.6565L865 34.7898H863.948V36.7898ZM863.522 36.7898V34.7898H861.522V36.7898H863.522ZM863.522 75V77H865.522V75H863.522ZM843.777 75H841.777V77H843.777V75ZM843.777 2.27272V0.272724H841.777V2.27272H843.777ZM860.539 2.27272L862.193 1.14912L861.598 0.272724H860.539V2.27272ZM886.391 40.3409L884.736 41.4645L885.332 42.3409H886.391V40.3409ZM886.959 40.3409V42.3409H888.959V40.3409H886.959ZM886.959 2.27272V0.272724H884.959V2.27272H886.959ZM904.703 2.27272V75H908.703V2.27272H904.703ZM906.703 73H890.226V77H906.703V73ZM891.874 73.8667L865.596 35.6565L862.3 37.9231L888.578 76.1333L891.874 73.8667ZM863.948 34.7898H863.522V38.7898H863.948V34.7898ZM861.522 36.7898V75H865.522V36.7898H861.522ZM863.522 73H843.777V77H863.522V73ZM845.777 75V2.27272H841.777V75H845.777ZM843.777 4.27272H860.539V0.272724H843.777V4.27272ZM858.884 3.39633L884.736 41.4645L888.046 39.2173L862.193 1.14912L858.884 3.39633ZM886.391 42.3409H886.959V38.3409H886.391V42.3409ZM888.959 40.3409V2.27272H884.959V40.3409H888.959ZM886.959 4.27272H906.703V0.272724H886.959V4.27272Z" fill="#D4BA64" mask="url(#path-1-outside-1_218_8)"/>
</g>
<defs>
<filter id="filter0_d_218_8" x="0.9875" y="0.578443" width="914.416" height="84.1158" filterUnits="userSpaceOnUse" color-interpolation-filters="sRGB">
<feFlood flood-opacity="0" result="BackgroundImageFix"/>
<feColorMatrix in="SourceAlpha" type="matrix" values="0 0 0 0 0 0 0 0 0 0 0 0 0 0 0 0 0 0 127 0" result="hardAlpha"/>
<feOffset dx="4" dy="4"/>
<feGaussianBlur stdDeviation="2.35"/>
<feComposite in2="hardAlpha" operator="out"/>
<feColorMatrix type="matrix" values="0 0 0 0 0 0 0 0 0 0 0 0 0 0 0 0 0 0 1 0"/>
<feBlend mode="normal" in2="BackgroundImageFix" result="effect1_dropShadow_218_8"/>
<feBlend mode="normal" in="SourceGraphic" in2="effect1_dropShadow_218_8" result="shape"/>
</filter>
</defs>
</svg>
