<svg width="60" height="58" viewBox="0 0 60 58" fill="none" xmlns="http://www.w3.org/2000/svg">
<path d="M20.8071 27.4339L12.2357 18.842C11.9344 18.544 11.5517 18.3421 11.136 18.2618C10.7203 18.1815 10.2902 18.2264 9.9 18.3909C9.50867 18.5521 9.17369 18.8257 8.93726 19.1774C8.70083 19.5291 8.57354 19.943 8.57143 20.3671V22.5151H2.14286C1.57454 22.5151 1.02949 22.7414 0.627628 23.1442C0.225765 23.547 0 24.0934 0 24.663V33.255C0 33.8247 0.225765 34.371 0.627628 34.7738C1.02949 35.1767 1.57454 35.403 2.14286 35.403H8.57143V37.551C8.57354 37.975 8.70083 38.389 8.93726 38.7406C9.17369 39.0923 9.50867 39.366 9.9 39.5271C10.1543 39.6473 10.4332 39.7062 10.7143 39.6989C10.9963 39.7006 11.2759 39.6464 11.5369 39.5395C11.798 39.4326 12.0355 39.2751 12.2357 39.076L20.8071 30.4841C21.008 30.2844 21.1674 30.0468 21.2762 29.7851C21.385 29.5233 21.441 29.2426 21.441 28.959C21.441 28.6755 21.385 28.3947 21.2762 28.133C21.1674 27.8712 21.008 27.6336 20.8071 27.4339Z" fill="url(#paint0_linear_306_56)"/>
<path d="M38.5714 57.9997C37.7167 58.0016 36.8809 57.7473 36.1714 57.2694C35.5898 56.8754 35.1137 56.3441 34.7849 55.7224C34.4561 55.1006 34.2847 54.4075 34.2857 53.7038V4.30013C34.285 3.59828 34.4559 2.90695 34.7834 2.2866C35.1109 1.66625 35.5851 1.13579 36.1644 0.74159C36.7437 0.347395 37.4105 0.101479 38.1066 0.0253485C38.8026 -0.0507816 39.5067 0.0451931 40.1571 0.304879L57.3 7.17843C58.084 7.49124 58.7584 8.02908 59.2388 8.72452C59.7191 9.41997 59.9839 10.2421 60 11.0878V46.8302C60.0008 47.6906 59.7439 48.5314 59.2625 49.2438C58.7811 49.9561 58.0974 50.5071 57.3 50.8255L40.1571 57.699C39.6537 57.9038 39.1147 58.006 38.5714 57.9997ZM38.5714 4.30013V53.7252L55.7143 46.8302V11.0878L38.5714 4.30013Z" fill="url(#paint1_linear_306_56)"/>
<path d="M42.8571 35.4029C42.2888 35.4029 41.7438 35.1766 41.3419 34.7738C40.94 34.371 40.7143 33.8246 40.7143 33.2549V24.663C40.7143 24.0933 40.94 23.547 41.3419 23.1442C41.7438 22.7413 42.2888 22.515 42.8571 22.515C43.4255 22.515 43.9705 22.7413 44.3724 23.1442C44.7742 23.547 45 24.0933 45 24.663V33.2549C45 33.8246 44.7742 34.371 44.3724 34.7738C43.9705 35.1766 43.4255 35.4029 42.8571 35.4029Z" fill="url(#paint2_linear_306_56)"/>
<path d="M36.4286 5.33115H27.8571C26.7205 5.33115 25.6304 5.78376 24.8267 6.58941C24.023 7.39506 23.5714 8.48776 23.5714 9.62712V50.4388C23.5714 51.5782 24.023 52.6709 24.8267 53.4765C25.6304 54.2822 26.7205 54.7348 27.8571 54.7348H36.4286C36.9969 54.7348 37.5419 54.5085 37.9438 54.1057C38.3457 53.7028 38.5714 53.1565 38.5714 52.5868V7.47914C38.5714 6.90946 38.3457 6.36311 37.9438 5.96028C37.5419 5.55746 36.9969 5.33115 36.4286 5.33115Z" fill="url(#paint3_linear_306_56)"/>
<path d="M38.5711 46.1429C53.2068 45.6059 55.714 35.403 55.714 31.8158L57.8568 46.8517C57.8573 47.2819 57.7288 47.7023 57.4881 48.0585C57.2474 48.4147 56.9056 48.6902 56.5068 48.8493L38.2283 56.3028L37.7354 48.7849L38.5711 46.1429Z" fill="url(#paint4_linear_306_56)"/>
<defs>
<linearGradient id="paint0_linear_306_56" x1="1.96667" y1="3.13297e-06" x2="59.9333" y2="56.0345" gradientUnits="userSpaceOnUse">
<stop stop-color="#FFF7AE"/>
<stop offset="0.21" stop-color="#9B6326"/>
<stop offset="0.38" stop-color="#FFF7AE"/>
<stop offset="0.53" stop-color="#D3C175"/>
<stop offset="0.65" stop-color="#FCEEC4"/>
<stop offset="0.7" stop-color="#B78626"/>
<stop offset="0.82" stop-color="#FFFACF"/>
<stop offset="1" stop-color="#9B6326"/>
</linearGradient>
<linearGradient id="paint1_linear_306_56" x1="1.96667" y1="3.13297e-06" x2="59.9333" y2="56.0345" gradientUnits="userSpaceOnUse">
<stop stop-color="#FFF7AE"/>
<stop offset="0.21" stop-color="#9B6326"/>
<stop offset="0.38" stop-color="#FFF7AE"/>
<stop offset="0.53" stop-color="#D3C175"/>
<stop offset="0.65" stop-color="#FCEEC4"/>
<stop offset="0.7" stop-color="#B78626"/>
<stop offset="0.82" stop-color="#FFFACF"/>
<stop offset="1" stop-color="#9B6326"/>
</linearGradient>
<linearGradient id="paint2_linear_306_56" x1="1.96667" y1="3.13297e-06" x2="59.9333" y2="56.0345" gradientUnits="userSpaceOnUse">
<stop stop-color="#FFF7AE"/>
<stop offset="0.21" stop-color="#9B6326"/>
<stop offset="0.38" stop-color="#FFF7AE"/>
<stop offset="0.53" stop-color="#D3C175"/>
<stop offset="0.65" stop-color="#FCEEC4"/>
<stop offset="0.7" stop-color="#B78626"/>
<stop offset="0.82" stop-color="#FFFACF"/>
<stop offset="1" stop-color="#9B6326"/>
</linearGradient>
<linearGradient id="paint3_linear_306_56" x1="1.96667" y1="3.13297e-06" x2="59.9333" y2="56.0345" gradientUnits="userSpaceOnUse">
<stop stop-color="#FFF7AE"/>
<stop offset="0.21" stop-color="#9B6326"/>
<stop offset="0.38" stop-color="#FFF7AE"/>
<stop offset="0.53" stop-color="#D3C175"/>
<stop offset="0.65" stop-color="#FCEEC4"/>
<stop offset="0.7" stop-color="#B78626"/>
<stop offset="0.82" stop-color="#FFFACF"/>
<stop offset="1" stop-color="#9B6326"/>
</linearGradient>
<linearGradient id="paint4_linear_306_56" x1="1.96667" y1="3.13297e-06" x2="59.9333" y2="56.0345" gradientUnits="userSpaceOnUse">
<stop stop-color="#FFF7AE"/>
<stop offset="0.21" stop-color="#9B6326"/>
<stop offset="0.38" stop-color="#FFF7AE"/>
<stop offset="0.53" stop-color="#D3C175"/>
<stop offset="0.65" stop-color="#FCEEC4"/>
<stop offset="0.7" stop-color="#B78626"/>
<stop offset="0.82" stop-color="#FFFACF"/>
<stop offset="1" stop-color="#9B6326"/>
</linearGradient>
</defs>
</svg>
