<svg width="458" height="46" viewBox="0 0 458 46" fill="none" xmlns="http://www.w3.org/2000/svg">
<path d="M18.0465 0.519997L33.7265 0.199997C35.0492 0.199997 35.7318 0.41333 35.7745 0.839996L35.0705 10.888C33.2785 10.888 32.3825 10.5893 32.3825 9.992L31.4225 3.4L20.4145 3.656L20.7345 22.6L20.4145 41.672L27.6465 43.08C27.6465 44.36 27.3265 45 26.6865 45C25.0225 45 22.2065 44.9147 18.2385 44.744L9.4705 45C8.8305 45 8.5105 44.36 8.5105 43.08L15.7425 41.672L15.4225 22.6L15.7425 3.656L4.7345 3.4L3.7745 9.992C3.7745 10.5893 2.8785 10.888 1.0865 10.888L0.3825 0.839996C0.425167 0.41333 1.10783 0.199997 2.4305 0.199997L18.0465 0.519997ZM64.669 16.584L60.381 15.688C60.381 14.3653 60.765 13.704 61.533 13.704C62.173 13.704 63.9437 13.768 66.845 13.896L72.029 13.704C72.7543 13.704 73.117 14.344 73.117 15.624L69.021 16.584V42.12L73.117 43.016C73.117 44.3387 72.7543 45 72.029 45L66.845 44.616L61.533 45C60.765 45 60.381 44.3387 60.381 43.016L64.669 42.12L64.157 30.152L48.541 30.792L48.093 42.12L52.381 43.016C52.381 44.3387 52.0183 45 51.293 45L46.109 44.616L40.797 45C40.029 45 39.645 44.3387 39.645 43.016L43.741 42.12V16.584L39.645 15.688C39.645 14.3653 40.029 13.704 40.797 13.704C41.437 13.704 43.2077 13.768 46.109 13.896L51.293 13.704C52.0183 13.704 52.381 14.344 52.381 15.624L48.093 16.584L48.605 27.464H64.157L64.669 16.584ZM102.417 45L86.609 44.616L81.297 45C80.529 45 80.145 44.3387 80.145 43.016L84.241 42.12V16.584L80.145 15.688C80.145 14.3653 80.529 13.704 81.297 13.704C81.937 13.704 83.7077 13.768 86.609 13.896L102.097 13.704C102.95 13.704 103.484 13.7893 103.697 13.96C103.91 14.088 104.017 14.3013 104.017 14.6L102.865 21.384C101.116 21.384 100.241 21.064 100.241 20.424V16.712L88.529 16.84L89.105 27.464H100.945V30.088L89.041 30.792L88.529 41.864H100.817L101.905 38.216C102.033 37.7467 102.268 37.448 102.609 37.32C102.993 37.192 103.654 37.128 104.593 37.128L104.209 44.232C104.124 44.744 103.526 45 102.417 45ZM146.435 30.728L134.979 31.432L134.531 42.12L139.971 43.016C139.971 44.3387 139.608 45 138.883 45L132.547 44.616L127.235 45C126.467 45 126.083 44.3387 126.083 43.016L130.179 42.12V16.584L126.083 15.688C126.083 14.3653 126.467 13.704 127.235 13.704C127.875 13.704 129.645 13.768 132.547 13.896L146.627 13.704C147.437 13.704 147.949 13.7893 148.163 13.96C148.419 14.088 148.547 14.3013 148.547 14.6L147.395 21.384C145.645 21.384 144.771 21.064 144.771 20.424V16.712L134.467 16.84L135.043 28.104H146.435V30.728ZM158.429 16.584L154.333 15.688C154.333 14.3653 154.717 13.704 155.485 13.704C156.125 13.704 157.895 13.768 160.797 13.896L165.981 13.704C166.706 13.704 167.069 14.344 167.069 15.624L162.973 16.584V42.12L167.069 43.016C167.069 44.3387 166.706 45 165.981 45L160.797 44.616L155.485 45C154.717 45 154.333 44.3387 154.333 43.016L158.429 42.12V16.584ZM196.291 13.704L202.307 13.896L206.659 13.704C207.384 13.7893 207.747 14.4507 207.747 15.688L204.099 16.648L203.907 45H201.027L181.187 20.36C181.229 22.7493 181.315 26.376 181.443 31.24C181.571 36.0613 181.656 39.688 181.699 42.12C182.765 42.376 184.451 42.6747 186.755 43.016C186.755 44.3387 186.371 45 185.603 45L179.715 44.616L174.915 45C174.147 45 173.763 44.3387 173.763 43.016L177.987 42.056L177.795 16.648L173.763 15.752C173.763 14.3867 174.147 13.704 174.915 13.704C175.512 13.704 177.752 13.768 181.635 13.896L200.643 37.96L200.259 16.648L195.203 15.752C195.203 14.3867 195.565 13.704 196.291 13.704ZM218.874 42.12L223.162 43.016C223.162 44.3387 222.778 45 222.01 45C221.668 45 219.812 44.936 216.442 44.808L212.026 45C211.3 45 210.938 44.36 210.938 43.08L214.65 42.12L225.466 13.704H229.626L240.57 42.056L244.282 43.08C244.282 44.36 243.898 45 243.13 45C242.404 45 240.698 44.936 238.01 44.808L232.442 45C231.674 45 231.29 44.3387 231.29 43.016L235.642 42.12L233.082 35.016L221.178 35.656L218.874 42.12ZM227.13 18.632L222.266 32.328H232.058L227.13 18.632ZM268.377 45L254.297 44.616L248.985 45C248.217 45 247.833 44.3387 247.833 43.016L251.929 42.12V16.584L247.833 15.688C247.833 14.3653 248.217 13.704 248.985 13.704L254.297 13.896L259.481 13.704C260.206 13.704 260.569 14.344 260.569 15.624L256.473 16.584V41.864H266.777L267.865 38.216C267.993 37.7467 268.227 37.448 268.569 37.32C268.953 37.192 269.614 37.128 270.553 37.128L270.169 44.232C270.083 44.744 269.486 45 268.377 45ZM298.843 16.712L299.419 30.792L302.171 30.92C304.56 30.8347 306.416 30.0453 307.739 28.552C309.062 27.016 309.723 25.288 309.723 23.368C309.723 21.4053 309.147 19.7413 307.995 18.376C306.886 17.0107 305.243 16.3067 303.067 16.264L298.843 16.712ZM296.859 13.896L303.899 13.704C306.971 13.704 309.424 14.6213 311.259 16.456C313.094 18.2907 314.011 20.5733 314.011 23.304C314.011 25.992 312.944 28.3387 310.811 30.344C308.72 32.3067 305.734 33.3733 301.851 33.544L299.291 33.672L298.843 42.12L304.283 43.016C304.283 44.3387 303.92 45 303.195 45L296.859 44.616L291.547 45C290.779 45 290.395 44.3387 290.395 43.016L294.491 42.12V16.584L290.395 15.688C290.395 14.3653 290.779 13.704 291.547 13.704C292.187 13.704 293.958 13.768 296.859 13.896ZM344.482 16.584L340.194 15.688C340.194 14.3653 340.578 13.704 341.346 13.704C341.986 13.704 343.756 13.768 346.658 13.896L351.842 13.704C352.567 13.704 352.93 14.344 352.93 15.624L348.833 16.584V42.12L352.93 43.016C352.93 44.3387 352.567 45 351.842 45L346.658 44.616L341.346 45C340.578 45 340.194 44.3387 340.194 43.016L344.482 42.12L343.97 30.152L328.354 30.792L327.906 42.12L332.194 43.016C332.194 44.3387 331.831 45 331.106 45L325.922 44.616L320.61 45C319.842 45 319.458 44.3387 319.458 43.016L323.554 42.12V16.584L319.458 15.688C319.458 14.3653 319.842 13.704 320.61 13.704C321.25 13.704 323.02 13.768 325.922 13.896L331.106 13.704C331.831 13.704 332.194 14.344 332.194 15.624L327.906 16.584L328.418 27.464H343.97L344.482 16.584ZM364.374 42.12L368.662 43.016C368.662 44.3387 368.278 45 367.51 45C367.168 45 365.312 44.936 361.942 44.808L357.526 45C356.8 45 356.438 44.36 356.438 43.08L360.15 42.12L370.966 13.704H375.126L386.07 42.056L389.782 43.08C389.782 44.36 389.398 45 388.63 45C387.904 45 386.198 44.936 383.51 44.808L377.942 45C377.174 45 376.79 44.3387 376.79 43.016L381.142 42.12L378.582 35.016L366.678 35.656L364.374 42.12ZM372.63 18.632L367.766 32.328H377.558L372.63 18.632ZM414.581 37.192C414.581 39.8373 413.514 41.8853 411.381 43.336C409.247 44.7867 406.517 45.512 403.189 45.512C399.861 45.512 396.362 44.7867 392.693 43.336C392.778 41.9707 393.034 40.328 393.461 38.408C393.93 36.4453 394.186 35.464 394.229 35.464C395.85 35.464 396.661 35.784 396.661 36.424V41.032C398.581 42.056 400.714 42.568 403.061 42.568C405.407 42.568 407.114 42.12 408.181 41.224C409.247 40.328 409.781 39.176 409.781 37.768C409.781 35.9333 408.735 34.44 406.645 33.288L398.453 28.872C396.831 27.976 395.573 26.888 394.677 25.608C393.823 24.2853 393.397 22.9413 393.397 21.576C393.397 19.272 394.378 17.3093 396.341 15.688C398.346 14.024 401.077 13.192 404.533 13.192C407.007 13.192 409.866 13.7467 413.109 14.856L411.765 22.216C409.93 22.216 409.013 21.896 409.013 21.256V17.032C407.434 16.4773 405.834 16.2 404.213 16.2C401.226 16.2 399.071 17.1813 397.749 19.144C397.578 19.656 397.493 20.2107 397.493 20.808C397.493 22.6427 398.602 24.1573 400.821 25.352L408.821 29.576C410.698 30.5573 412.127 31.7307 413.109 33.096C414.09 34.4613 414.581 35.8267 414.581 37.192ZM443.23 45L427.422 44.616L422.11 45C421.342 45 420.958 44.3387 420.958 43.016L425.054 42.12V16.584L420.958 15.688C420.958 14.3653 421.342 13.704 422.11 13.704C422.75 13.704 424.52 13.768 427.422 13.896L442.91 13.704C443.763 13.704 444.296 13.7893 444.51 13.96C444.723 14.088 444.83 14.3013 444.83 14.6L443.678 21.384C441.928 21.384 441.054 21.064 441.054 20.424V16.712L429.342 16.84L429.918 27.464H441.758V30.088L429.854 30.792L429.342 41.864H441.63L442.718 38.216C442.846 37.7467 443.08 37.448 443.422 37.32C443.806 37.192 444.467 37.128 445.406 37.128L445.022 44.232C444.936 44.744 444.339 45 443.23 45ZM455.545 37.256C457.081 37.256 457.849 38.5787 457.849 41.224L457.401 45.192C455.907 45.576 454.691 45.768 453.753 45.768C452.174 45.768 451.385 44.4667 451.385 41.864C451.385 40.712 451.555 39.3253 451.897 37.704C453.433 37.4053 454.649 37.256 455.545 37.256Z" fill="white"/>
</svg>
